<svg width="36" height="36" viewBox="0 0 36 36" fill="none" xmlns="http://www.w3.org/2000/svg">
<path d="M26.25 25.65C25.95 25.35 25.8 24.9875 25.8 24.5625C25.8 24.1375 25.95 23.7833 26.25 23.5L30.25 19.5H14.25C13.825 19.5 13.4688 19.3554 13.1813 19.0663C12.8938 18.7771 12.75 18.4187 12.75 17.9913C12.75 17.5638 12.8938 17.2083 13.1813 16.925C13.4688 16.6417 13.825 16.5 14.25 16.5H30.15L26.1 12.45C25.8333 12.1833 25.7 11.8426 25.7 11.4277C25.7 11.0127 25.8536 10.6544 26.1607 10.3527C26.4423 10.0509 26.7942 9.9 27.2165 9.9C27.6388 9.9 28 10.05 28.3 10.35L34.95 17C35.1167 17.1667 35.2333 17.3356 35.3 17.5067C35.3667 17.6778 35.4 17.8611 35.4 18.0567C35.4 18.2522 35.3667 18.4333 35.3 18.6C35.2333 18.7667 35.1167 18.9333 34.95 19.1L28.35 25.7C28.0833 25.9667 27.7417 26.1 27.325 26.1C26.9083 26.1 26.55 25.95 26.25 25.65ZM3 36C2.2 36 1.5 35.7 0.9 35.1C0.3 34.5 0 33.8 0 33V3C0 2.2 0.3 1.5 0.9 0.9C1.5 0.3 2.2 0 3 0H16.05C16.475 0 16.8313 0.144583 17.1188 0.43375C17.4063 0.72295 17.55 1.08128 17.55 1.50875C17.55 1.93625 17.4063 2.29167 17.1188 2.575C16.8313 2.85833 16.475 3 16.05 3H3V33H16.05C16.475 33 16.8313 33.1446 17.1188 33.4337C17.4063 33.7229 17.55 34.0813 17.55 34.5087C17.55 34.9362 17.4063 35.2917 17.1188 35.575C16.8313 35.8583 16.475 36 16.05 36H3Z" fill="white"/>
</svg>
