<svg width="32" height="32" viewBox="0 0 32 32" fill="none" xmlns="http://www.w3.org/2000/svg">
<path d="M16 15.95C13.8 15.95 12 15.25 10.6 13.85C9.2 12.45 8.5 10.65 8.5 8.45C8.5 6.25 9.2 4.45 10.6 3.05C12 1.65 13.8 0.949997 16 0.949997C18.2 0.949997 20 1.65 21.4 3.05C22.8 4.45 23.5 6.25 23.5 8.45C23.5 10.65 22.8 12.45 21.4 13.85C20 15.25 18.2 15.95 16 15.95ZM3 32C2.16667 32 1.45833 31.7083 0.875 31.125C0.291667 30.5417 0 29.8333 0 29V27.3C0 26.0333 0.316667 24.95 0.95 24.05C1.58333 23.15 2.4 22.4667 3.4 22C5.63333 21 7.775 20.25 9.825 19.75C11.875 19.25 13.9333 19 16 19C18.0667 19 20.1167 19.2583 22.15 19.775C24.1833 20.2917 26.3167 21.0333 28.55 22C29.5833 22.4667 30.4167 23.15 31.05 24.05C31.6833 24.95 32 26.0333 32 27.3V29C32 29.8333 31.7083 30.5417 31.125 31.125C30.5417 31.7083 29.8333 32 29 32H3Z" fill="white"/>
</svg>
