<svg width="34" height="33" viewBox="0 0 34 33" fill="none" xmlns="http://www.w3.org/2000/svg">
    <g filter="url(#filter0_d_146_109)">
        <path d="M16.6134 19.975L10.0259 23.9417C9.837 24.0597 9.63631 24.1128 9.42381 24.101C9.21131 24.0892 9.02242 24.0243 8.85714 23.9063C8.69186 23.7882 8.56791 23.6347 8.48527 23.4458C8.40263 23.2569 8.38492 23.0444 8.43214 22.8083L10.1676 15.3L4.35923 10.2354C4.17034 10.0701 4.05818 9.88715 4.02277 9.68646C3.98735 9.48577 3.99325 9.29097 4.04048 9.10208C4.0877 8.9132 4.19395 8.75382 4.35923 8.62396C4.5245 8.4941 4.7252 8.41736 4.96131 8.39375L12.6467 7.72083L15.6217 0.6375C15.7162 0.425 15.8578 0.265625 16.0467 0.159375C16.2356 0.053125 16.4245 0 16.6134 0C16.8023 0 16.9912 0.053125 17.1801 0.159375C17.3689 0.265625 17.5106 0.425 17.6051 0.6375L20.5801 7.72083L28.2655 8.39375C28.5016 8.41736 28.7023 8.4941 28.8676 8.62396C29.0328 8.75382 29.1391 8.9132 29.1863 9.10208C29.2335 9.29097 29.2394 9.48577 29.204 9.68646C29.1686 9.88715 29.0564 10.0701 28.8676 10.2354L23.0592 15.3L24.7946 22.8083C24.8419 23.0444 24.8242 23.2569 24.7415 23.4458C24.6589 23.6347 24.5349 23.7882 24.3696 23.9063C24.2044 24.0243 24.0155 24.0892 23.803 24.101C23.5905 24.1128 23.3898 24.0597 23.2009 23.9417L16.6134 19.975Z" fill="white"/>
    </g>
    <defs>
        <filter id="filter0_d_146_109" x="0" y="0" width="33.2266" height="32.1027" filterUnits="userSpaceOnUse" color-interpolation-filters="sRGB">
            <feFlood flood-opacity="0" result="BackgroundImageFix"/>
            <feColorMatrix in="SourceAlpha" type="matrix" values="0 0 0 0 0 0 0 0 0 0 0 0 0 0 0 0 0 0 127 0" result="hardAlpha"/>
            <feOffset dy="4"/>
            <feGaussianBlur stdDeviation="2"/>
            <feComposite in2="hardAlpha" operator="out"/>
            <feColorMatrix type="matrix" values="0 0 0 0 0 0 0 0 0 0 0 0 0 0 0 0 0 0 0.25 0"/>
            <feBlend mode="normal" in2="BackgroundImageFix" result="effect1_dropShadow_146_109"/>
            <feBlend mode="normal" in="SourceGraphic" in2="effect1_dropShadow_146_109" result="shape"/>
        </filter>
    </defs>
</svg>
