<?xml version="1.0" encoding="UTF-8" standalone="no"?>
<!-- Created with Inkscape (http://www.inkscape.org/) -->

<svg
   width="826.88495mm"
   height="95.708885mm"
   viewBox="0 0 826.88495 95.708885"
   version="1.1"
   id="svg5"
   inkscape:version="1.2.2 (732a01da63, 2022-12-09)"
   sodipodi:docname="Hintergrund-Banner.svg"
   inkscape:export-filename="Hintergrund-Wetter.png"
   inkscape:export-xdpi="96"
   inkscape:export-ydpi="96"
   xml:space="preserve"
   xmlns:inkscape="http://www.inkscape.org/namespaces/inkscape"
   xmlns:sodipodi="http://sodipodi.sourceforge.net/DTD/sodipodi-0.dtd"
   xmlns="http://www.w3.org/2000/svg"
   xmlns:svg="http://www.w3.org/2000/svg"><sodipodi:namedview
     id="namedview7"
     pagecolor="#505050"
     bordercolor="#eeeeee"
     borderopacity="1"
     inkscape:showpageshadow="0"
     inkscape:pageopacity="0"
     inkscape:pagecheckerboard="0"
     inkscape:deskcolor="#505050"
     inkscape:document-units="mm"
     showgrid="false"
     inkscape:zoom="0.36257716"
     inkscape:cx="-1510.0234"
     inkscape:cy="2591.1726"
     inkscape:window-width="1920"
     inkscape:window-height="1001"
     inkscape:window-x="-9"
     inkscape:window-y="-9"
     inkscape:window-maximized="1"
     inkscape:current-layer="layer2" /><defs
     id="defs2" /><g
     inkscape:groupmode="layer"
     id="layer6"
     inkscape:label="W2"
     transform="translate(812.27504,-124.78354)"><path
       id="path1261"
       style="display:inline;fill:#354c5b;fill-opacity:1;stroke:none;stroke-width:6"
       d="m -794.31849,124.78355 a 28.12183,28.12183 0 0 0 -17.95652,26.04957 28.12183,28.12183 0 0 0 28.12179,28.1218 28.12183,28.12183 0 0 0 20.95325,-9.38806 15.737906,15.737906 0 0 0 6.20014,2.84169 30.185818,30.185818 0 0 0 28.83234,21.25193 30.185818,30.185818 0 0 0 27.13737,-16.97725 17.744663,17.744663 0 0 0 9.16791,2.56315 17.744663,17.744663 0 0 0 13.80743,-6.60528 28.12183,28.12183 0 0 0 17.74052,6.31382 28.12183,28.12183 0 0 0 9.16585,-1.55598 28.12183,28.12183 0 0 0 24.11635,13.68186 28.12183,28.12183 0 0 0 25.58914,-16.49925 31.991806,31.991806 0 0 0 9.75651,1.5353 31.991806,31.991806 0 0 0 23.65178,-10.46448 15.737906,15.737906 0 0 0 9.88777,3.4985 15.737906,15.737906 0 0 0 13.85239,-8.29045 29.92782,29.92782 0 0 0 16.84962,5.19451 29.92782,29.92782 0 0 0 9.16429,-1.45004 13.41592,13.41592 0 0 0 13.0235,10.22212 13.41592,13.41592 0 0 0 3.54397,-0.48628 17.285896,17.285896 0 0 0 16.83773,13.38575 17.285896,17.285896 0 0 0 13.26534,-6.21823 34.055794,34.055794 0 0 0 19.24275,5.96036 34.055794,34.055794 0 0 0 29.08867,-16.38401 15.737906,15.737906 0 0 0 5.225,0.90434 15.737906,15.737906 0 0 0 6.30349,-1.32964 15.737906,15.737906 0 0 0 12.5305,6.23166 15.737906,15.737906 0 0 0 5.50303,-1.002 18.059893,18.059893 0 0 0 16.94263,11.83804 18.059893,18.059893 0 0 0 2.59209,-0.19069 21.671869,21.671869 0 0 0 18.56373,10.51047 21.671869,21.671869 0 0 0 18.64485,-10.63966 15.737906,15.737906 0 0 0 7.41299,1.86759 15.737906,15.737906 0 0 0 11.91607,-5.47357 30.701815,30.701815 0 0 0 19.81791,7.27966 30.701815,30.701815 0 0 0 25.30491,-13.32322 15.737906,15.737906 0 0 0 9.08885,2.89905 15.737906,15.737906 0 0 0 4.35529,-0.62322 30.185818,30.185818 0 0 0 28.33057,19.81946 30.185818,30.185818 0 0 0 17.7736,-5.81308 13.366284,13.366284 0 0 0 6.27713,1.57665 13.366284,13.366284 0 0 0 13.20126,-11.29337 13.366284,13.366284 0 0 0 5.93814,-2.51303 30.185818,30.185818 0 0 0 17.52968,5.63274 30.185818,30.185818 0 0 0 4.84673,-0.40308 13.366284,13.366284 0 0 0 12.66642,9.12399 13.366284,13.366284 0 0 0 4.6054,-0.82682 26.831839,26.831839 0 0 0 23.71483,14.31954 26.831839,26.831839 0 0 0 25.689388,-19.1084 22.703861,22.703861 0 0 0 16.364374,6.98252 22.703861,22.703861 0 0 0 13.347506,-4.35632 15.221907,15.221907 0 0 0 10.904244,4.6147 15.221907,15.221907 0 0 0 5.934005,-1.21543 34.055794,34.055794 0 0 0 32.508093,23.91896 34.055794,34.055794 0 0 0 32.785596,-24.9251 h 1.254703 v -8.71781 a 34.055794,34.055794 0 0 0 0.0155,-0.41289 34.055794,34.055794 0 0 0 -0.0155,-0.98289 V 125.51374 H 5.8378378 v -0.73019 h -439.7659178 -36.8422 -28.98066 -55.3744 -11.08046 -50.93952 -32.57321 -21.16408 -102.67539 z"
       inkscape:label="W-Schicht1"
       inkscape:export-filename=".\layer1.svg"
       inkscape:export-xdpi="96"
       inkscape:export-ydpi="96" /></g></svg>
