<?xml version="1.0" encoding="UTF-8" standalone="no"?>
<!-- Created with Inkscape (http://www.inkscape.org/) -->

<svg
   width="145.76991mm"
   height="135.47121mm"
   viewBox="0 0 145.76991 135.47121"
   version="1.1"
   id="svg5"
   xml:space="preserve"
   inkscape:version="1.2.2 (732a01da63, 2022-12-09)"
   sodipodi:docname="logo.svg"
   xmlns:inkscape="http://www.inkscape.org/namespaces/inkscape"
   xmlns:sodipodi="http://sodipodi.sourceforge.net/DTD/sodipodi-0.dtd"
   xmlns="http://www.w3.org/2000/svg"
   xmlns:svg="http://www.w3.org/2000/svg"><sodipodi:namedview
     id="namedview7"
     pagecolor="#505050"
     bordercolor="#eeeeee"
     borderopacity="1"
     inkscape:showpageshadow="0"
     inkscape:pageopacity="0"
     inkscape:pagecheckerboard="0"
     inkscape:deskcolor="#505050"
     inkscape:document-units="mm"
     showgrid="false"
     inkscape:zoom="0.7251543"
     inkscape:cx="494.37754"
     inkscape:cy="302.6942"
     inkscape:window-width="1920"
     inkscape:window-height="1001"
     inkscape:window-x="-9"
     inkscape:window-y="-9"
     inkscape:window-maximized="1"
     inkscape:current-layer="layer1" /><defs
     id="defs2" /><g
     inkscape:label="Ebene 1"
     inkscape:groupmode="layer"
     id="layer1"
     transform="translate(0.01351365,-0.45075895)"><path
       style="fill:#000000;fill-opacity:1;stroke-width:5.5"
       d="m 15.879597,66.511913 c 0,0 -18.3328889,-32.474802 16.253899,-50.051697 C 47.871401,8.4622629 54.499582,4.954013 72.897251,4.334289 87.597081,3.839126 96.775126,7.1075694 113.145,15.944218 c 28.39694,15.328997 17.5439,49.277695 17.5439,49.277695 0,0 14.5717,15.2182 14.1899,31.475807 -0.65187,27.75812 -30.70181,38.95776 -67.595579,39.21576 C 40.389446,136.17148 -0.19383686,130.70404 0.65769013,97.47171 0.97552413,85.067703 15.879597,66.511913 15.879597,66.511913 Z"
       id="path356"
       sodipodi:nodetypes="cssscsssc"
       inkscape:label="body"
       inkscape:export-filename="logo-sw.svg"
       inkscape:export-xdpi="96"
       inkscape:export-ydpi="96" /><path
       style="fill:#ffffff;fill-opacity:1;stroke-width:5.5"
       d="m 38.310808,128.99786 c 0,0 -5.565035,-63.304047 34.479733,-63.304057 40.044759,0 39.952699,61.114867 39.952699,61.114867 0,0 -11.12544,4.99934 -36.851349,5.10811 -25.725916,0.10876 -37.581083,-2.91892 -37.581083,-2.91892 z"
       id="path1276"
       sodipodi:nodetypes="czczc"
       inkscape:label="belly" /><path
       style="display:inline;fill:#ffffff;fill-opacity:1;stroke-width:5.88469"
       d="m 108.48139,126.58063 c 0,0 -0.87335,3.13644 0.47195,4.44088 1.15798,1.1228 2.1887,0.78362 2.1887,0.78362 l 3.99563,-1.11111 z"
       id="path6750"
       sodipodi:nodetypes="csccc"
       inkscape:label="foot-right-white" /><path
       style="display:inline;fill:#ffffff;fill-opacity:1;stroke-width:6.4677"
       d="m 39.12149,126.70335 c 0,0 1.55711,3.67536 0.584231,5.45308 -0.579189,1.05834 -1.300459,0.84349 -1.300459,0.84349 l -3.710747,-0.76873 z"
       id="path6750-8"
       sodipodi:nodetypes="csccc"
       inkscape:label="foot-left-white" /><path
       style="display:inline;fill:#000000;fill-opacity:1;stroke-width:5.5"
       d="m 141.96564,82.677573 c 0,0 15.52753,36.405347 -16.26969,50.333797 -2.66551,1.1676 -4.22556,0.73564 -5.04029,0.15553 -1.58984,-1.13201 0.70868,-2.81649 -0.79755,-3.3481 -3.10135,-1.0946 -6.12672,3.0256 -8.93918,0.95778 -2.14211,-1.57495 0.16147,-3.65253 -0.91217,-4.33277 -1.54437,-0.97849 -6.37218,2.88224 -7.66217,-0.72974 -1.82432,-5.1081 10.94668,-16.10724 15.78041,-17.42229 12.40541,-3.375 23.84064,-25.614207 23.84064,-25.614207 z"
       id="path4200"
       sodipodi:nodetypes="csssssssc"
       inkscape:label="foot-right" /><path
       style="display:inline;fill:#000000;fill-opacity:1;stroke-width:5.5"
       d="m 2.3854871,89.483583 c 0,0 -12.6961941,28.953117 20.3265189,45.139057 2.613022,1.28076 4.22556,0.73564 5.04029,0.15553 1.58984,-1.13201 -0.70868,-2.81649 0.79755,-3.3481 3.10135,-1.0946 6.12672,3.0256 8.93918,0.95778 2.14211,-1.57495 -0.16147,-3.65253 0.91217,-4.33277 1.54437,-0.97849 6.37218,2.88224 7.66217,-0.72974 1.82432,-5.1081 -10.94668,-16.10724 -15.78041,-17.42229 C 17.877546,106.52805 2.3854871,89.483583 2.3854871,89.483583 Z"
       id="path4200-1"
       sodipodi:nodetypes="csssssssc"
       inkscape:label="foot-right" /><g
       id="g6616"
       inkscape:label="arm-right"
       inkscape:export-filename=".\arm.svg"
       inkscape:export-xdpi="96"
       inkscape:export-ydpi="96"
       transform="translate(-32.108109,-40.299437)"
       style="display:inline"><path
         style="fill:#ffffff;fill-opacity:1;stroke-width:5.5"
         d="m 146.60642,132.51905 c -14.04549,8.64289 -15.30511,10.24673 -17.24635,14.81619 1.19155,1.2643 0.0187,3.12076 2.66092,5.09704 2.27311,1.7002 7.35607,-4.67024 10.14981,-6.69466 3.33636,-1.65028 7.18426,-3.74578 12.09778,-7.8816 3.39944,-2.86138 8.16921,-9.59339 9.45138,-14.66636 1.00548,-3.97822 -1.37281,-4.79635 -4.9146,-3.25373 -4.14107,1.80364 -7.17608,6.60544 -12.19894,12.58312 z"
         id="path1578-7"
         sodipodi:nodetypes="ccscsssc"
         inkscape:label="arm-right-white" /><path
         style="fill:#000000;fill-opacity:1;stroke-width:5.5"
         d="m 144.12162,103.07432 c -13.38703,3.07999 -12.65209,20.01658 -18.68747,22.56092 -2.54084,1.07114 -7.8121,1.27969 -8.1301,4.75051 -0.36486,3.98222 4.01352,4.37838 4.37838,6.38514 0.36486,2.00676 -2.73649,4.79667 -0.72973,6.98586 2.00676,2.1892 5.5613,0.0269 6.56757,1.0946 1.19155,1.2643 0.0187,3.12076 2.66092,5.09704 2.27311,1.7002 8.13007,-4.67024 10.92381,-6.69466 3.33636,-1.65028 7.83524,-3.86768 11.83978,-7.8816 2.42669,-2.43238 8.33466,-10.53681 9.19338,-15.69835 0.87648,-5.26822 -0.59882,-10.21432 -3.88261,-13.31567 -3.28378,-3.10135 -8.33707,-4.61749 -14.13393,-3.28379 z"
         id="path1578"
         sodipodi:nodetypes="ssssssscssss"
         inkscape:label="arm-right" /></g><g
       id="g6566"
       inkscape:label="arm-left"
       transform="translate(-32.108109,-40.299437)"><path
         style="fill:#ffffff;fill-opacity:1;stroke-width:5.5"
         d="m 59.646493,126.43047 c 2.097971,0.36487 9.132193,4.59555 11.961635,6.57183 2.844101,1.98651 6.120424,4.86576 7.643433,6.16397 3.927073,3.88133 8.019137,11.25941 7.952688,12.54705 -0.02118,1.82433 -0.9913,3.64927 -3.554192,4.15357 -3.708565,0.72973 -6.666921,-2.52559 -9.750966,-5.57754 -7.215134,-5.86523 -9.22465,-6.14664 -15.288834,-9.26762 -4.717097,-2.42768 -11.139715,-5.91645 -11.440759,-13.02637 -0.05187,-1.22518 0.181322,-2.31487 4.284939,-2.25036 4.103617,0.0645 6.094084,0.32059 8.192056,0.68547 z"
         id="path1580-7"
         sodipodi:nodetypes="zsccscsszz"
         inkscape:label="arm-left-white" /><path
         style="fill:#000000;fill-opacity:1;stroke-width:5.5"
         d="m 59.837839,110.37161 c 7.844593,10e-6 17.84154,4.2148 23.13382,11.25358 2.084832,2.77284 3.28758,6.37788 4.810589,7.67609 1.888402,1.60967 8.578452,3.16183 8.498759,7.37286 -0.05438,2.87371 -2.972472,2.52712 -3.4229,3.79883 -0.470799,1.32923 1.298656,3.63009 0.06355,5.56877 -1.114756,1.74977 -4.310457,1.68882 -5.525455,2.68211 -1.115778,0.91217 -1.036908,4.19657 -3.5998,4.70087 -3.708565,0.72973 -6.621313,-3.07289 -9.705358,-6.12484 -7.215134,-5.86523 -9.22465,-6.14664 -15.288834,-9.26762 -4.717097,-2.42768 -10.570361,-7.13739 -10.731263,-14.25186 -0.180875,-7.99764 3.922299,-13.4088 11.766893,-13.40879 z"
         id="path1580"
         sodipodi:nodetypes="zssssssscsszz"
         inkscape:label="arm-left" /></g><path
       style="fill:#ffffff;fill-opacity:1;stroke-width:5.5"
       d="m 73.968361,24.697943 c 3.38335,0.09082 1.64048,-5.724589 5.47531,-4.919912 3.04193,0.638301 0.44197,8.546567 -5.48609,8.609076 -7.387371,0.0779 -10.140472,-8.156432 -6.717408,-8.725388 4.194558,-0.697187 1.817308,4.904404 6.728188,5.036224 z"
       id="path1220"
       sodipodi:nodetypes="sssss"
       inkscape:label="mouth" /><g
       id="g252"
       inkscape:label="eye-right"
       transform="translate(-32.108109,-40.299437)"><path
         style="fill:#ffffff;fill-opacity:1;stroke-width:5.5"
         d="m 150.46127,47.496385 c -4.17035,-3.717555 -19.72052,-10.478152 -26.18363,2.039957 -6.23806,12.082216 5.81964,22.183844 8.52089,24.092146 2.70124,1.908302 16.87999,8.621444 23.90971,-2.382687 6.87927,-10.768617 -2.07661,-20.031861 -6.24697,-23.749416 z"
         id="path1116-6"
         sodipodi:nodetypes="zszsz"
         inkscape:label="eye-right" /><path
         style="display:inline;fill:#000000;fill-opacity:1;stroke-width:3.5998"
         d="m 150.34996,48.541414 c -3.24553,-2.884667 -13.43384,-7.844544 -17.58892,-0.728815 -4.00119,6.852188 4.44294,14.838784 6.093,16.284523 1.65006,1.445739 12.02822,7.108817 16.35861,1.084992 4.29916,-5.980368 -1.61716,-13.756033 -4.86269,-16.6407 z"
         id="path1116-6-4"
         sodipodi:nodetypes="zszsz"
         inkscape:label="pupil-right" /><rect
         style="display:inline;fill:#ffffff;fill-opacity:1;stroke-width:5.5"
         id="rect1498-7"
         width="8.4480171"
         height="5.6310959"
         x="115.27161"
         y="83.200874"
         ry="2.5426521"
         transform="rotate(-16.45656)"
         inkscape:label="pupil-highlights-right" /></g><g
       id="g258"
       inkscape:label="eye-left"
       inkscape:export-filename="logo-ohne-arm.svg"
       inkscape:export-xdpi="96"
       inkscape:export-ydpi="96"
       transform="translate(-32.108109,-40.299437)"><path
         style="fill:#ffffff;fill-opacity:1;stroke-width:5.5"
         d="m 57.328048,45.939772 c 4.170353,-3.717555 19.720526,-10.478152 26.183637,2.039957 6.23806,12.082216 -5.819648,22.183844 -8.520889,24.092146 -2.70124,1.908302 -16.879999,8.621444 -23.909717,-2.382687 -6.879265,-10.768617 2.076616,-20.031861 6.246969,-23.749416 z"
         id="path1116"
         sodipodi:nodetypes="zszsz"
         inkscape:label="eye-left" /><path
         style="display:inline;fill:#000000;fill-opacity:1;stroke-width:3.5998"
         d="m 57.072423,47.335034 c 3.24553,-2.884667 13.43384,-7.844544 17.588922,-0.728815 4.00119,6.852188 -4.442942,14.838784 -6.093002,16.284523 -1.65006,1.445739 -12.02822,7.108817 -16.358606,1.084992 -4.29916,-5.980368 1.617156,-13.756033 4.862686,-16.6407 z"
         id="path1116-6-4-7"
         sodipodi:nodetypes="zszsz"
         inkscape:label="pupil-left" /><rect
         style="display:inline;fill:#ffffff;fill-opacity:1;stroke-width:5.5"
         id="rect1498"
         width="9.101366"
         height="5.3110476"
         x="37.075542"
         y="65.941483"
         ry="2.5426521"
         transform="rotate(-22.497517)"
         inkscape:label="pupil-highlights-left" /></g></g></svg>
