<?xml version="1.0" encoding="UTF-8" standalone="no"?>
<!-- Created with Inkscape (http://www.inkscape.org/) -->

<svg
   width="861.80164mm"
   height="111.04434mm"
   viewBox="0 0 861.80164 111.04434"
   version="1.1"
   id="svg5"
   inkscape:version="1.2.2 (732a01da63, 2022-12-09)"
   sodipodi:docname="Hintergrund-Banner.svg"
   inkscape:export-filename="Hintergrund-Wetter.png"
   inkscape:export-xdpi="96"
   inkscape:export-ydpi="96"
   xml:space="preserve"
   xmlns:inkscape="http://www.inkscape.org/namespaces/inkscape"
   xmlns:sodipodi="http://sodipodi.sourceforge.net/DTD/sodipodi-0.dtd"
   xmlns="http://www.w3.org/2000/svg"
   xmlns:svg="http://www.w3.org/2000/svg"><sodipodi:namedview
     id="namedview7"
     pagecolor="#505050"
     bordercolor="#eeeeee"
     borderopacity="1"
     inkscape:showpageshadow="0"
     inkscape:pageopacity="0"
     inkscape:pagecheckerboard="0"
     inkscape:deskcolor="#505050"
     inkscape:document-units="mm"
     showgrid="false"
     inkscape:zoom="0.36257716"
     inkscape:cx="-1510.0234"
     inkscape:cy="2591.1726"
     inkscape:window-width="1920"
     inkscape:window-height="1001"
     inkscape:window-x="-9"
     inkscape:window-y="-9"
     inkscape:window-maximized="1"
     inkscape:current-layer="layer2" /><defs
     id="defs2" /><g
     inkscape:groupmode="layer"
     id="layer6"
     inkscape:label="W2"
     transform="translate(815.51125,-141.31689)"><path
       id="rect6925"
       style="fill:#2f3a42;fill-opacity:1;stroke:none;stroke-width:5.03869"
       inkscape:label="W-Schicht2"
       d="m -758.51525,141.31689 a 30.639616,31.2586 0 0 0 -0.29508,0.72968 h -40.65591 v 6.10608 a 30.639616,31.2586 0 0 0 -16.04502,27.46189 30.639616,31.2586 0 0 0 30.63999,31.25856 30.639616,31.2586 0 0 0 27.00869,-16.54473 20.988943,21.412962 0 0 0 9.47746,2.32079 20.988943,21.412962 0 0 0 18.12344,-10.6195 30.639616,31.2586 0 0 0 0.84956,0.0325 30.639616,31.2586 0 0 0 15.90136,-4.56044 30.639616,31.2586 0 0 0 19.85563,7.47913 30.639616,31.2586 0 0 0 4.33927,-0.32246 20.988943,21.412962 0 0 0 18.28209,10.90941 20.988943,21.412962 0 0 0 9.80095,-2.49442 30.639616,31.2586 0 0 0 29.6044,23.28591 30.639616,31.2586 0 0 0 25.51834,-13.97899 20.988943,21.412962 0 0 0 4.40076,0.48473 20.988943,21.412962 0 0 0 20.87263,-19.29495 13.24899,13.516646 0 0 0 5.3976,1.18236 13.24899,13.516646 0 0 0 12.08712,-8.00365 30.639616,31.2586 0 0 0 9.80457,1.6645 30.639616,31.2586 0 0 0 9.26455,-1.47175 20.988943,21.412962 0 0 0 19.19521,12.78837 20.988943,21.412962 0 0 0 9.13329,-2.13475 30.639616,31.2586 0 0 0 25.16384,13.44 30.639616,31.2586 0 0 0 24.58558,-12.64057 20.988943,21.412962 0 0 0 8.98188,2.06499 20.988943,21.412962 0 0 0 18.3503,-11.04015 20.988943,21.412962 0 0 0 14.48749,5.93245 20.988943,21.412962 0 0 0 8.17676,-1.70687 17.183027,17.530159 0 0 0 -0.10438,1.82056 17.183027,17.530159 0 0 0 17.18293,17.5302 17.183027,17.530159 0 0 0 10.69443,-3.81011 13.24899,13.516646 0 0 0 10.75335,5.63429 13.24899,13.516646 0 0 0 4.66225,-0.87075 30.639616,31.2586 0 0 0 27.23503,16.98242 30.639616,31.2586 0 0 0 29.94391,-24.69358 30.639616,31.2586 0 0 0 10.40195,1.87792 30.639616,31.2586 0 0 0 15.84348,-4.52324 13.24899,13.516646 0 0 0 12.61576,9.40305 13.24899,13.516646 0 0 0 6.03994,-1.49552 20.988943,21.412962 0 0 0 20.09852,15.2616 20.988943,21.412962 0 0 0 18.72857,-11.77137 20.988943,21.412962 0 0 0 7.58714,1.45159 20.988943,21.412962 0 0 0 4.82192,-0.57826 30.639616,31.2586 0 0 0 29.75013,23.83989 30.639616,31.2586 0 0 0 28.7507,-20.50676 20.988943,21.412962 0 0 0 7.36905,1.37304 20.988943,21.412962 0 0 0 20.2861,-15.97525 13.24899,13.516646 0 0 0 2.65204,0.28164 13.24899,13.516646 0 0 0 5.46995,-1.2144 13.24899,13.516646 0 0 0 11.83959,7.46363 13.24899,13.516646 0 0 0 4.33203,-0.75293 13.24899,13.516646 0 0 0 -0.0372,1.01183 13.24899,13.516646 0 0 0 13.24932,13.51648 13.24899,13.516646 0 0 0 9.313638,-3.91655 20.988943,21.412962 0 0 0 19.066015,12.48554 20.988943,21.412962 0 0 0 13.991911,-5.46685 20.988943,21.412962 0 0 0 16.775203,10.61589 30.639616,31.2586 0 0 0 29.724284,23.74222 30.639616,31.2586 0 0 0 20.334159,-7.90029 20.988943,21.412962 0 0 0 12.694832,4.37699 20.988943,21.412962 0 0 0 20.432345,-17.10283 V 142.04657 H 41.182699 -1.14185 -286.80451 a 30.639616,31.2586 0 0 0 -1.18029,-0.72968 h -34.88418 a 30.639616,31.2586 0 0 0 -1.17977,0.72968 h -152.60154 a 30.639616,31.2586 0 0 0 -1.90117,-0.72968 h -24.43675 a 30.639616,31.2586 0 0 0 -1.89911,0.72968 h -18.43454 a 30.639616,31.2586 0 0 0 -0.2067,-0.72968 h -60.02631 a 30.639616,31.2586 0 0 0 -0.20671,0.72968 h -81.47254 a 30.639616,31.2586 0 0 0 -0.39223,-0.72968 z" /></g></svg>
