<?xml version="1.0" encoding="UTF-8" standalone="no"?>
<!-- Created with Inkscape (http://www.inkscape.org/) -->

<svg
   width="867.7738mm"
   height="100.812mm"
   viewBox="0 0 867.7738 100.812"
   version="1.1"
   id="svg5"
   inkscape:version="1.2.2 (732a01da63, 2022-12-09)"
   sodipodi:docname="Hintergrund-Banner.svg"
   inkscape:export-filename="Hintergrund-Wetter.png"
   inkscape:export-xdpi="96"
   inkscape:export-ydpi="96"
   xml:space="preserve"
   xmlns:inkscape="http://www.inkscape.org/namespaces/inkscape"
   xmlns:sodipodi="http://sodipodi.sourceforge.net/DTD/sodipodi-0.dtd"
   xmlns="http://www.w3.org/2000/svg"
   xmlns:svg="http://www.w3.org/2000/svg"><sodipodi:namedview
     id="namedview7"
     pagecolor="#505050"
     bordercolor="#eeeeee"
     borderopacity="1"
     inkscape:showpageshadow="0"
     inkscape:pageopacity="0"
     inkscape:pagecheckerboard="0"
     inkscape:deskcolor="#505050"
     inkscape:document-units="mm"
     showgrid="false"
     inkscape:zoom="0.36257716"
     inkscape:cx="-1510.0234"
     inkscape:cy="2591.1726"
     inkscape:window-width="1920"
     inkscape:window-height="1001"
     inkscape:window-x="-9"
     inkscape:window-y="-9"
     inkscape:window-maximized="1"
     inkscape:current-layer="layer2" /><defs
     id="defs2" /><g
     inkscape:groupmode="layer"
     id="layer6"
     inkscape:label="W2"
     transform="translate(842.75557,-151.34016)"><path
       id="path1261-9-1-5"
       style="display:inline;fill:#2b353c;fill-opacity:1;stroke:none;stroke-width:5.9392"
       d="m -340.67052,151.34017 a 33.710704,33.710704 0 0 0 -25.10375,11.23674 h -294.81194 a 33.710704,33.710704 0 0 0 -10.04079,-1.53203 33.710704,33.710704 0 0 0 -10.03566,1.53203 h -130.93631 v 5.20633 a 33.710704,33.710704 0 0 0 -31.15666,33.61198 33.710704,33.710704 0 0 0 33.71072,33.71072 33.710704,33.710704 0 0 0 28.05424,-15.04097 10.653534,10.653534 0 0 0 4.27535,0.90335 10.653534,10.653534 0 0 0 5.86875,-1.76783 15.16813,15.16813 0 0 0 7.59364,4.42062 33.710704,33.710704 0 0 0 31.84465,22.72207 33.710704,33.710704 0 0 0 31.59402,-22.0044 11.375869,11.375869 0 0 0 6.45547,-4.70247 33.710704,33.710704 0 0 0 22.73179,8.83 33.710704,33.710704 0 0 0 25.50377,-11.70223 11.375869,11.375869 0 0 0 8.3604,3.66254 11.375869,11.375869 0 0 0 5.88411,-1.64712 33.710704,33.710704 0 0 0 32.27025,23.9881 33.710704,33.710704 0 0 0 32.74648,-25.76515 17.515719,17.515719 0 0 0 2.41595,0.17392 17.515719,17.515719 0 0 0 7.28569,-1.5975 12.639956,12.639956 0 0 0 11.85619,8.27908 12.639956,12.639956 0 0 0 8.0576,-2.90957 33.710704,33.710704 0 0 0 24.97944,11.09299 33.710704,33.710704 0 0 0 29.87271,-18.13826 12.639956,12.639956 0 0 0 6.89438,-2.45585 17.515719,17.515719 0 0 0 11.45874,4.28456 17.515719,17.515719 0 0 0 3.6564,-0.39388 33.710704,33.710704 0 0 0 31.88404,22.83256 33.710704,33.710704 0 0 0 30.1914,-18.74188 12.278789,12.278789 0 0 0 5.59867,1.35914 12.278789,12.278789 0 0 0 12.03574,-9.88834 17.876889,17.876889 0 0 0 4.53879,0.59848 17.876889,17.876889 0 0 0 10.12569,-3.14641 33.710704,33.710704 0 0 0 24.34004,10.4101 33.710704,33.710704 0 0 0 15.02971,-3.55153 17.876889,17.876889 0 0 0 15.63127,9.22131 17.876889,17.876889 0 0 0 2.18218,-0.14579 33.710704,33.710704 0 0 0 33.04573,27.16521 33.710704,33.710704 0 0 0 30.29166,-18.93063 17.876889,17.876889 0 0 0 0.8655,0.0323 17.876889,17.876889 0 0 0 9.67402,-2.8574 33.710704,33.710704 0 0 0 20.46111,6.94348 33.710704,33.710704 0 0 0 27.58005,-14.3504 11.917621,11.917621 0 0 0 6.20381,1.75044 11.917621,11.917621 0 0 0 6.06109,-1.66041 17.876889,17.876889 0 0 0 16.51212,11.05054 17.876889,17.876889 0 0 0 6.0877,-1.08035 33.710704,33.710704 0 0 0 26.93962,13.48388 33.710704,33.710704 0 0 0 30.516734,-19.41454 20.405062,20.405062 0 0 0 9.411602,2.3162 20.405062,20.405062 0 0 0 13.774934,-5.35775 11.917621,11.917621 0 0 0 8.978849,4.09325 11.917621,11.917621 0 0 0 1.662466,-0.12021 17.876889,17.876889 0 0 0 17.840559,16.9147 17.876889,17.876889 0 0 0 8.984988,-2.42413 33.710704,33.710704 0 0 0 24.2423309,10.3124 33.710704,33.710704 0 0 0 33.7107111,-33.71071 33.710704,33.710704 0 0 0 -7.129676,-20.72967 V 162.57694 H -315.54734 a 33.710704,33.710704 0 0 0 -25.12318,-11.23674 z"
       inkscape:label="W-Schicht3" /></g></svg>
