<?xml version="1.0" encoding="UTF-8" standalone="no"?>
<!-- Created with Inkscape (http://www.inkscape.org/) -->

<svg
   width="8.8561554mm"
   height="8.8561497mm"
   viewBox="0 0 8.8561554 8.8561497"
   version="1.1"
   id="svg5"
   xml:space="preserve"
   inkscape:version="1.2.2 (732a01da63, 2022-12-09)"
   sodipodi:docname="Zeichnung-Inkscape.svg"
   xmlns:inkscape="http://www.inkscape.org/namespaces/inkscape"
   xmlns:sodipodi="http://sodipodi.sourceforge.net/DTD/sodipodi-0.dtd"
   xmlns="http://www.w3.org/2000/svg"
   xmlns:svg="http://www.w3.org/2000/svg"><sodipodi:namedview
     id="namedview7"
     pagecolor="#505050"
     bordercolor="#eeeeee"
     borderopacity="1"
     inkscape:showpageshadow="0"
     inkscape:pageopacity="0"
     inkscape:pagecheckerboard="0"
     inkscape:deskcolor="#505050"
     inkscape:document-units="mm"
     showgrid="false"
     inkscape:zoom="8.2041846"
     inkscape:cx="683.37078"
     inkscape:cy="155.71322"
     inkscape:window-width="1920"
     inkscape:window-height="1001"
     inkscape:window-x="-9"
     inkscape:window-y="-9"
     inkscape:window-maximized="1"
     inkscape:current-layer="layer1" /><defs
     id="defs2" /><g
     inkscape:label="Ebene 1"
     inkscape:groupmode="layer"
     id="layer1"
     transform="translate(-102.83477,-23.681737)"><path
       id="path348-2-3"
       style="fill:#ffdb10;fill-opacity:1;stroke-width:0.0110702"
       d="m 106.48793,23.681736 c -1.06274,0.199262 -1.9372,0.710078 -2.62355,1.532961 -0.68635,0.822883 -1.02961,1.773077 -1.02961,2.850574 0,0.61993 0.118,1.201116 0.35416,1.743557 0.23616,0.542437 0.55561,1.014854 0.95783,1.41707 0.40221,0.402215 0.87463,0.721233 1.41707,0.957398 0.54244,0.236165 1.12362,0.354591 1.74355,0.354591 1.0775,0 2.0292,-0.344009 2.85577,-1.031345 0.82657,-0.687325 1.33589,-1.562749 1.52777,-2.627006 -0.73063,0.133034 -1.44441,0.09238 -2.14182,-0.121945 -0.69743,-0.214335 -1.30822,-0.584016 -1.83221,-1.108749 -0.52398,-0.524734 -0.89299,-1.136379 -1.10702,-1.834798 -0.21402,-0.698417 -0.25478,-1.409057 -0.12194,-2.132308 z" /></g></svg>
