<?xml version="1.0" encoding="UTF-8" standalone="no"?>
<!-- Created with Inkscape (http://www.inkscape.org/) -->

<svg
   width="10.719894mm"
   height="8.7856426mm"
   viewBox="0 0 10.719894 8.7856426"
   version="1.1"
   id="svg5"
   xml:space="preserve"
   inkscape:version="1.2.2 (732a01da63, 2022-12-09)"
   sodipodi:docname="Zeichnung-Inkscape.svg"
   xmlns:inkscape="http://www.inkscape.org/namespaces/inkscape"
   xmlns:sodipodi="http://sodipodi.sourceforge.net/DTD/sodipodi-0.dtd"
   xmlns="http://www.w3.org/2000/svg"
   xmlns:svg="http://www.w3.org/2000/svg"><sodipodi:namedview
     id="namedview7"
     pagecolor="#505050"
     bordercolor="#eeeeee"
     borderopacity="1"
     inkscape:showpageshadow="0"
     inkscape:pageopacity="0"
     inkscape:pagecheckerboard="0"
     inkscape:deskcolor="#505050"
     inkscape:document-units="mm"
     showgrid="false"
     inkscape:zoom="8.2041846"
     inkscape:cx="683.37078"
     inkscape:cy="155.71322"
     inkscape:window-width="1920"
     inkscape:window-height="1001"
     inkscape:window-x="-9"
     inkscape:window-y="-9"
     inkscape:window-maximized="1"
     inkscape:current-layer="layer1" /><defs
     id="defs2" /><g
     inkscape:label="Ebene 1"
     inkscape:groupmode="layer"
     id="layer1"
     transform="translate(-146.7887,-13.576772)"><path
       d="m 147.24813,22.362414 q -0.19525,0 -0.32735,-0.141136 -0.13208,-0.141161 -0.13208,-0.349802 0,-0.208654 0.13208,-0.346949 0.1321,-0.138296 0.32735,-0.138296 h 6.12563 q 0.19527,0 0.32735,0.141136 0.13208,0.141161 0.13208,0.349803 0,0.208654 -0.13208,0.346949 -0.13208,0.138295 -0.32735,0.138295 z m 8.5759,0 q -0.19526,0 -0.32734,-0.141136 -0.13208,-0.141161 -0.13208,-0.349802 0,-0.208654 0.13208,-0.346949 0.13208,-0.138296 0.32734,-0.138296 h 1.22512 q 0.19526,0 0.32735,0.141136 0.13208,0.141161 0.13208,0.349803 0,0.208654 -0.13208,0.346949 -0.13209,0.138295 -0.32735,0.138295 z m -8.5759,-2.603157 q -0.19525,0 -0.32735,-0.141136 -0.13208,-0.141161 -0.13208,-0.349803 0,-0.208654 0.13208,-0.346949 0.1321,-0.138295 0.32735,-0.138295 h 1.22512 q 0.19526,0 0.32734,0.141149 0.13209,0.141148 0.13209,0.349789 0,0.208667 -0.13209,0.346962 -0.13208,0.138283 -0.32734,0.138283 z m 3.67538,0 q -0.19525,0 -0.32734,-0.141136 -0.13208,-0.141161 -0.13208,-0.349803 0,-0.208654 0.13208,-0.346949 0.13209,-0.138295 0.32734,-0.138295 h 6.12564 q 0.19526,0 0.32735,0.141149 0.13208,0.141148 0.13208,0.349789 0,0.208667 -0.13208,0.346962 -0.13209,0.138283 -0.32735,0.138283 z m -3.67538,-2.603145 q -0.19525,0 -0.32735,-0.141149 -0.13208,-0.141148 -0.13208,-0.34979 0,-0.208666 0.13208,-0.346949 0.1321,-0.138295 0.32735,-0.138295 h 6.7382 q 0.19526,0 0.32734,0.141136 0.13209,0.141161 0.13209,0.349803 0,0.208654 -0.13209,0.346949 -0.13208,0.138295 -0.32734,0.138295 z m 9.18846,0 q -0.19525,0 -0.32734,-0.141149 -0.13209,-0.141148 -0.13209,-0.34979 0,-0.208666 0.13209,-0.346949 0.13209,-0.138295 0.32734,-0.138295 h 0.61256 q 0.19526,0 0.32735,0.141136 0.13208,0.141161 0.13208,0.349803 0,0.208654 -0.13208,0.346949 -0.13209,0.138295 -0.32735,0.138295 z m -9.18846,-2.603158 q -0.19525,0 -0.32735,-0.141136 -0.13208,-0.14116 -0.13208,-0.349802 0,-0.208654 0.13208,-0.346949 0.1321,-0.138295 0.32735,-0.138295 h 3.06282 q 0.19525,0 0.32733,0.141136 0.1321,0.141161 0.1321,0.349802 0,0.208654 -0.1321,0.346949 -0.13208,0.138295 -0.32733,0.138295 z m 5.51308,0 q -0.19525,0 -0.32735,-0.141136 -0.13208,-0.14116 -0.13208,-0.349802 0,-0.208654 0.13208,-0.346949 0.1321,-0.138295 0.32735,-0.138295 h 4.28794 q 0.19526,0 0.32735,0.141136 0.13208,0.141161 0.13208,0.349802 0,0.208654 -0.13208,0.346949 -0.13209,0.138295 -0.32735,0.138295 z"
       id="path195"
       style="fill:#d1d9e6;fill-opacity:1;stroke-width:0.0157847" /></g></svg>
