<?xml version="1.0" encoding="UTF-8" standalone="no"?>
<!-- Created with Inkscape (http://www.inkscape.org/) -->

<svg
   width="11.641659mm"
   height="10.842865mm"
   viewBox="0 0 11.641659 10.842865"
   version="1.1"
   id="svg5"
   xml:space="preserve"
   inkscape:version="1.2.2 (732a01da63, 2022-12-09)"
   sodipodi:docname="Zeichnung-Inkscape.svg"
   xmlns:inkscape="http://www.inkscape.org/namespaces/inkscape"
   xmlns:sodipodi="http://sodipodi.sourceforge.net/DTD/sodipodi-0.dtd"
   xmlns="http://www.w3.org/2000/svg"
   xmlns:svg="http://www.w3.org/2000/svg"><sodipodi:namedview
     id="namedview7"
     pagecolor="#505050"
     bordercolor="#eeeeee"
     borderopacity="1"
     inkscape:showpageshadow="0"
     inkscape:pageopacity="0"
     inkscape:pagecheckerboard="0"
     inkscape:deskcolor="#505050"
     inkscape:document-units="mm"
     showgrid="false"
     inkscape:zoom="4.1020922"
     inkscape:cx="692.45153"
     inkscape:cy="354.33138"
     inkscape:window-width="1920"
     inkscape:window-height="1001"
     inkscape:window-x="-9"
     inkscape:window-y="-9"
     inkscape:window-maximized="1"
     inkscape:current-layer="layer1" /><defs
     id="defs2" /><g
     inkscape:label="Ebene 1"
     inkscape:groupmode="layer"
     id="layer1"
     transform="translate(-56.935926,14.827907)"><rect
       style="fill:#006eff;fill-opacity:1;stroke:none;stroke-width:0.2;stroke-dasharray:none;stroke-opacity:1"
       id="rect7490-4-8"
       width="0.44761309"
       height="1.9800973"
       x="60.488079"
       y="-26.218405"
       ry="0.22380655"
       transform="rotate(17.755825)" /><rect
       style="fill:#006eff;fill-opacity:1;stroke:none;stroke-width:0.2;stroke-dasharray:none;stroke-opacity:1"
       id="rect7490-4-0-5-41"
       width="0.44761309"
       height="1.9800973"
       x="57.862907"
       y="-24.776016"
       ry="0.22380655"
       transform="rotate(17.755825)" /><rect
       style="fill:#006eff;fill-opacity:1;stroke:none;stroke-width:0.2;stroke-dasharray:none;stroke-opacity:1"
       id="rect7490-4-0-5-1-5-0"
       width="0.44761309"
       height="1.9800973"
       x="55.088593"
       y="-24.464012"
       ry="0.22380655"
       transform="rotate(17.755825)" /><path
       id="path567-4-9-43"
       style="fill:#858585;fill-opacity:1;stroke-width:6.42283"
       d="m 62.783631,-14.827907 c -0.855486,0 -1.609756,0.270992 -2.262396,0.813387 -0.65264,0.542395 -1.06694,1.241545 -1.24333,2.09703 -0.6791,0.105833 -1.23955,0.418614 -1.68052,0.93896 -0.44097,0.520347 -0.66146,1.124377 -0.66146,1.812293 0,0.77611 0.27151,1.435778 0.81391,1.978174 0.54239,0.542395 1.20154,0.813387 1.97765,0.813387 h 6.614586 c 0.60854,0 1.13309,-0.220487 1.57406,-0.661459 0.44098,-0.440971 0.66146,-0.965523 0.66146,-1.574064 0,-0.652638 -0.22048,-1.19283 -0.66146,-1.620573 -0.44097,-0.427744 -0.97885,-0.633106 -1.61385,-0.615466 v -0.317293 c 0,-1.005416 -0.33945,-1.867622 -1.01855,-2.586406 -0.6791,-0.718784 -1.51233,-1.07797 -2.5001,-1.07797 z"
       inkscape:export-filename="Regen-leicht.svg"
       inkscape:export-xdpi="96"
       inkscape:export-ydpi="96" /></g></svg>
