<?xml version="1.0" encoding="UTF-8" standalone="no"?>
<!-- Created with Inkscape (http://www.inkscape.org/) -->

<svg
   width="10.876839mm"
   height="9.3979073mm"
   viewBox="0 0 10.876839 9.3979073"
   version="1.1"
   id="svg5"
   xml:space="preserve"
   inkscape:version="1.2.2 (732a01da63, 2022-12-09)"
   sodipodi:docname="Zeichnung-Inkscape.svg"
   xmlns:inkscape="http://www.inkscape.org/namespaces/inkscape"
   xmlns:sodipodi="http://sodipodi.sourceforge.net/DTD/sodipodi-0.dtd"
   xmlns="http://www.w3.org/2000/svg"
   xmlns:svg="http://www.w3.org/2000/svg"><sodipodi:namedview
     id="namedview7"
     pagecolor="#505050"
     bordercolor="#eeeeee"
     borderopacity="1"
     inkscape:showpageshadow="0"
     inkscape:pageopacity="0"
     inkscape:pagecheckerboard="0"
     inkscape:deskcolor="#505050"
     inkscape:document-units="mm"
     showgrid="false"
     inkscape:zoom="8.2041846"
     inkscape:cx="683.37078"
     inkscape:cy="155.71322"
     inkscape:window-width="1920"
     inkscape:window-height="1001"
     inkscape:window-x="-9"
     inkscape:window-y="-9"
     inkscape:window-maximized="1"
     inkscape:current-layer="layer1" /><defs
     id="defs2" /><g
     inkscape:label="Ebene 1"
     inkscape:groupmode="layer"
     id="layer1"
     transform="translate(-88.051653,-23.611354)"><path
       id="path348-2"
       style="fill:#ffdb10;fill-opacity:1;stroke-width:0.0110702"
       d="m 93.725501,23.611354 c -1.062737,0.199262 -1.937198,0.710078 -2.623548,1.532961 -0.686349,0.822883 -1.029614,1.773077 -1.029614,2.850574 0,0.61993 0.117998,1.201116 0.354159,1.743556 0.236162,0.542438 0.555615,1.014854 0.957831,1.41707 0.402216,0.402216 0.874629,0.721234 1.417071,0.957398 0.542437,0.236165 1.123625,0.354592 1.743555,0.354592 1.077499,0 2.029193,-0.34401 2.855763,-1.031345 0.826576,-0.687325 1.335889,-1.562749 1.527772,-2.627006 -0.730633,0.133034 -1.444405,0.09238 -2.141821,-0.121945 -0.697424,-0.214335 -1.308215,-0.584016 -1.832203,-1.108749 -0.523989,-0.524734 -0.892994,-1.136379 -1.10702,-1.834798 -0.21402,-0.698417 -0.254785,-1.409057 -0.121945,-2.132308 z" /><path
       id="path1345-5"
       style="display:inline;fill:#ffffff;fill-opacity:1;stroke-width:5.28685"
       d="m 90.709889,27.692788 a 2.6582475,2.6582475 0 0 0 -2.65824,2.658236 2.6582475,2.6582475 0 0 0 2.65824,2.658235 2.6582475,2.6582475 0 0 0 0.15606,-0.0057 h 1.98179 c 0.0211,0 0.0421,-0.0013 0.0625,-0.0036 a 1.8704888,1.8704888 0 0 0 0.14831,0.0062 1.8704888,1.8704888 0 0 0 1.87017,-1.870687 1.8704888,1.8704888 0 0 0 -1.79214,-1.868103 2.6582475,2.6582475 0 0 0 -2.42672,-1.574581 z"
       inkscape:export-filename="sun+cloud.svg"
       inkscape:export-xdpi="96"
       inkscape:export-ydpi="96" /></g></svg>
