<?xml version="1.0" encoding="UTF-8" standalone="no"?>
<!-- Created with Inkscape (http://www.inkscape.org/) -->

<svg
   width="11.683502mm"
   height="10.584655mm"
   viewBox="0 0 11.683502 10.584655"
   version="1.1"
   id="svg5"
   xml:space="preserve"
   inkscape:version="1.2.2 (732a01da63, 2022-12-09)"
   sodipodi:docname="Zeichnung-Inkscape.svg"
   xmlns:inkscape="http://www.inkscape.org/namespaces/inkscape"
   xmlns:sodipodi="http://sodipodi.sourceforge.net/DTD/sodipodi-0.dtd"
   xmlns="http://www.w3.org/2000/svg"
   xmlns:svg="http://www.w3.org/2000/svg"><sodipodi:namedview
     id="namedview7"
     pagecolor="#505050"
     bordercolor="#eeeeee"
     borderopacity="1"
     inkscape:showpageshadow="0"
     inkscape:pageopacity="0"
     inkscape:pagecheckerboard="0"
     inkscape:deskcolor="#505050"
     inkscape:document-units="mm"
     showgrid="false"
     inkscape:zoom="8.2041846"
     inkscape:cx="683.37078"
     inkscape:cy="155.71322"
     inkscape:window-width="1920"
     inkscape:window-height="1001"
     inkscape:window-x="-9"
     inkscape:window-y="-9"
     inkscape:window-maximized="1"
     inkscape:current-layer="layer1" /><defs
     id="defs2"><inkscape:path-effect
       effect="fillet_chamfer"
       id="path-effect1424"
       is_visible="true"
       lpeversion="1"
       nodesatellites_param="F,0,0,1,0,0.42333333,0,1 @ F,0,0,1,0,0.42333333,0,1 @ F,0,0,1,0,0.42333333,0,1 @ F,0,0,1,0,0.42333333,0,1 | F,0,0,1,0,0.42333333,0,1 @ F,0,0,1,0,0.42333333,0,1 @ F,0,0,1,0,0.42333333,0,1 @ F,0,0,1,0,0.42333333,0,1 | F,0,0,1,0,0.42333333,0,1 @ F,0,0,1,0,0.42333333,0,1 @ F,0,0,1,0,0.42333333,0,1 @ F,0,0,1,0,0.42333333,0,1 | F,0,0,1,0,0.42333333,0,1 @ F,0,0,1,0,0.42333333,0,1 @ F,0,0,1,0,0.42333333,0,1 @ F,0,0,1,0,0.42333333,0,1 | F,0,0,1,0,0.42333333,0,1 @ F,0,0,1,0,0.42333333,0,1 @ F,0,0,1,0,0.42333333,0,1 @ F,0,0,1,0,0.42333333,0,1 | F,0,0,1,0,0.41793788,0,1 @ F,0,0,1,0,0.46390403,0,1 @ F,0,0,1,0,0.043796934,0,1 | F,0,0,1,0,0.043796934,0,1 @ F,0,0,1,0,0.072387587,0,1 @ F,0,0,1,0,0.42333333,0,1 @ F,0,0,1,0,1.3998057,0,1 @ F,0,0,1,0,0.42333333,0,1 @ F,0,0,1,0,0.42333333,0,1 @ F,0,0,1,0,0.42333333,0,1 @ F,0,0,1,0,0.42333333,0,1 @ F,0,0,1,0,0.42333333,0,1 @ F,0,0,1,0,0.42333333,0,1 @ F,0,0,1,0,0.42333333,0,1"
       unit="px"
       method="auto"
       mode="F"
       radius="1.6"
       chamfer_steps="1"
       flexible="false"
       use_knot_distance="true"
       apply_no_radius="true"
       apply_with_radius="true"
       only_selected="false"
       hide_knots="false" /></defs><g
     inkscape:label="Ebene 1"
     inkscape:groupmode="layer"
     id="layer1"
     transform="translate(-104.00566,-10.792023)"><path
       d="m 109.47146,12.353065 0,-1.137709 a 0.42333333,0.42333333 135 0 1 0.42333,-0.423333 0.39775597,0.39775597 48.814074 0 1 0.37042,0.423333 v 1.137709 a 0.42333333,0.42333333 135 0 1 -0.42333,0.423333 0.39775597,0.39775597 48.814074 0 1 -0.37042,-0.423333 z m 3.09087,1.522783 a 0.4031172,0.4031172 93.998042 0 1 0.0395,-0.565354 l 0.80362,-0.803609 a 0.41838176,0.41838176 0.33723505 0 1 0.59514,0.0035 0.40311894,0.40311894 93.998679 0 1 -0.0395,0.565352 l -0.80361,0.803607 a 0.41838403,0.41838403 0.33687518 0 1 -0.59514,-0.0035 z m 1.14247,2.710545 a 0.39775364,0.39775364 138.81446 0 1 0.42333,-0.370412 h 1.13771 a 0.42333333,0.42333333 45 0 1 0.42333,0.423333 0.39775364,0.39775364 138.81446 0 1 -0.42333,0.370412 h -1.13771 a 0.42333333,0.42333333 45 0 1 -0.42333,-0.423333 z m -0.28614,4.119202 -0.80362,-0.803608 a 0.4233281,0.4233281 90.00015 0 1 0,-0.59868 0.40279738,0.40279738 3.0018637 0 1 0.56886,0.02983 l 0.80361,0.803606 a 0.42333333,0.42333333 90 0 1 0,0.598684 0.40279193,0.40279193 3.0020539 0 1 -0.56885,-0.02983 z m -6.83948,-6.826247 -0.80362,-0.803609 a 0.42333007,0.42333007 90.000037 0 1 0,-0.598682 0.39406745,0.39406745 4.4311838 0 1 0.55563,0.04306 l 0.80361,0.803607 a 0.42333539,0.42333539 89.999881 0 1 0,0.598685 0.39406207,0.39406207 4.4314001 0 1 -0.55562,-0.04306 z m -0.44188,2.992743 c 0.0851,-0.240728 0.0656,-0.470082 0.14968,-0.618713 0.11971,-0.211687 0.60659,-0.112501 0.84394,-0.01631 1.9077,0.773164 3.64495,2.803773 3.76307,3.335607 0.005,0.02353 -0.0125,0.03716 -0.0355,0.02972 -1.96453,-0.635006 -3.33266,-1.048778 -4.62656,-2.10712 -0.17846,-0.145972 -0.17094,-0.407398 -0.0947,-0.62319 z m 4.75447,2.700804 c -0.0189,-0.09604 -0.0376,-0.190366 -0.0565,-0.282969 -0.008,-0.03918 -0.021,-0.102664 -0.029,-0.14184 -0.0366,-0.179875 -0.2368,-0.226217 -0.46838,-0.206235 -0.87422,0.07543 -1.40932,-1.144644 -2.10742,-1.999135 -0.4783,-0.585451 -1.41944,-0.607543 -1.5111,-0.803042 -0.0145,-0.03091 5.6e-4,-0.244593 0.0661,-0.46886 0.13376,-0.457762 0.3635,-0.859166 0.68922,-1.204211 0.16039,-0.169901 0.45542,-0.410794 0.65293,-0.535642 0.40325,-0.254906 0.84268,-0.410983 1.31828,-0.468231 0.23199,-0.02792 0.61273,-0.02802 0.84471,-7.1e-5 0.56292,0.06781 1.06623,0.274698 1.50995,0.620656 0.18427,0.143675 0.45357,0.412969 0.59718,0.597279 0.34627,0.444416 0.55323,0.949215 0.62088,1.5144 0.0278,0.232019 0.0278,0.612824 -0.001,0.84465 -0.0476,0.378481 -0.16043,0.73397 -0.33866,1.066467 -0.11038,0.205927 -0.33257,0.515445 -0.49209,0.686145 -0.2568,0.274795 -0.55527,0.495502 -0.89539,0.662122 -0.20984,0.102793 -0.39102,0.161499 -0.39099,0.161498 z"
       id="path231"
       style="fill:#ffdb10;fill-opacity:1;stroke-width:0.0132292"
       inkscape:path-effect="#path-effect1424"
       inkscape:original-d="m 109.47146,12.776398 v -1.984375 h 0.79375 v 1.984375 z m 3.38667,1.402291 -0.55563,-0.568854 1.4023,-1.402291 0.55562,0.568854 z m 0.84667,2.831037 v -0.793745 h 1.98437 v 0.793745 z m 0.0132,3.99521 -1.4023,-1.40229 0.56886,-0.56885 1.40229,1.40229 z m -6.83948,-6.826247 -1.4023,-1.402291 0.55563,-0.555625 1.40229,1.402291 z m -0.96255,3.043772 c 0.51594,-0.515938 0.0453,-1.138772 0.77734,-1.138772 2.12864,0.625728 4.18361,3.044891 4.20687,3.532187 -2.1481,-0.69482 -3.58486,-1.120144 -4.98421,-2.393415 z m 4.98421,2.393415 c -0.0265,-0.135687 -0.0529,-0.267977 -0.0794,-0.39687 -0.0265,-0.1289 -0.0529,-0.261193 -0.0794,-0.39688 -1.57976,0.781426 -2.09595,-2.403951 -3.6314,-2.665674 -0.13671,-0.02205 0.29728,1.464304 -0.41672,-0.07276 0.12347,-0.776111 0.48727,-1.411111 1.0914,-1.905 0.60413,-0.493889 1.29867,-0.740833 2.0836,-0.740833 0.88194,0 1.63159,0.308681 2.24896,0.926042 0.61736,0.617361 0.92604,1.368521 0.92604,2.253482 0,0.684903 -0.19623,1.300755 -0.5887,1.847555 -0.39247,0.546807 -0.91061,0.930453 -1.55443,1.15094 z"
       sodipodi:nodetypes="ccccccccccccccccccccccccccccccscccssssscc" /><path
       id="path1345"
       style="display:inline;fill:#ffffff;fill-opacity:1;stroke-width:5.28685"
       d="m 106.66391,16.060205 a 2.6582475,2.6582475 0 0 0 -2.65824,2.658236 2.6582475,2.6582475 0 0 0 2.65824,2.658235 2.6582475,2.6582475 0 0 0 0.15606,-0.0057 h 1.98179 c 0.0211,0 0.0421,-0.0013 0.0625,-0.0036 a 1.8704888,1.8704888 0 0 0 0.14831,0.0062 1.8704888,1.8704888 0 0 0 1.87017,-1.870687 1.8704888,1.8704888 0 0 0 -1.79214,-1.868103 2.6582475,2.6582475 0 0 0 -2.42672,-1.574581 z"
       inkscape:export-filename="sun+cloud.svg"
       inkscape:export-xdpi="96"
       inkscape:export-ydpi="96" /></g></svg>
