<?xml version="1.0" encoding="UTF-8" standalone="no"?>
<!-- Created with Inkscape (http://www.inkscape.org/) -->

<svg
   width="11.641663mm"
   height="11.686222mm"
   viewBox="0 0 11.641663 11.686222"
   version="1.1"
   id="svg5"
   xml:space="preserve"
   inkscape:version="1.2.2 (732a01da63, 2022-12-09)"
   sodipodi:docname="Zeichnung-Inkscape.svg"
   xmlns:inkscape="http://www.inkscape.org/namespaces/inkscape"
   xmlns:sodipodi="http://sodipodi.sourceforge.net/DTD/sodipodi-0.dtd"
   xmlns="http://www.w3.org/2000/svg"
   xmlns:svg="http://www.w3.org/2000/svg"><sodipodi:namedview
     id="namedview7"
     pagecolor="#505050"
     bordercolor="#eeeeee"
     borderopacity="1"
     inkscape:showpageshadow="0"
     inkscape:pageopacity="0"
     inkscape:pagecheckerboard="0"
     inkscape:deskcolor="#505050"
     inkscape:document-units="mm"
     showgrid="false"
     inkscape:zoom="8.2041846"
     inkscape:cx="683.37078"
     inkscape:cy="155.71322"
     inkscape:window-width="1920"
     inkscape:window-height="1001"
     inkscape:window-x="-9"
     inkscape:window-y="-9"
     inkscape:window-maximized="1"
     inkscape:current-layer="layer1" /><defs
     id="defs2" /><g
     inkscape:label="Ebene 1"
     inkscape:groupmode="layer"
     id="layer1"
     transform="translate(-140.5812,-46.46939)"><path
       id="path19480-1-9-7-0-0-0-0-5-1-0-9-3-5-4-6-3-5-8"
       style="fill:#d1d9e6;fill-opacity:1;stroke:#d1d9e6;stroke-width:0.144679;stroke-linecap:round;stroke-dasharray:none;stroke-opacity:1"
       d="m 143.69826,57.690932 1.07302,-1.113102 m -1.02595,-0.06636 1.01057,1.228571 m -1.26613,-0.607059 1.5446,-0.01241 m -0.75531,-0.738365 -0.0405,1.430793" /><path
       id="path19480-1-9-7-0-0-0-0-5-1-0-9-3-5-4-6-3-5-3-9"
       style="fill:#d1d9e6;fill-opacity:1;stroke:#d1d9e6;stroke-width:0.144679;stroke-linecap:round;stroke-dasharray:none;stroke-opacity:1"
       d="m 142.46345,56.193351 1.07302,-1.113102 m -1.02595,-0.06636 1.01057,1.228571 m -1.26613,-0.607059 1.5446,-0.0124 m -0.75531,-0.738365 -0.0405,1.430792" /><path
       id="path19480-1-9-7-0-0-0-0-5-1-0-9-3-5-4-6-3-5-7-7"
       style="fill:#d1d9e6;fill-opacity:1;stroke:#d1d9e6;stroke-width:0.144679;stroke-linecap:round;stroke-dasharray:none;stroke-opacity:1"
       d="m 145.42552,56.366561 1.07302,-1.113102 m -1.02595,-0.06636 1.01056,1.228571 m -1.26612,-0.607059 1.5446,-0.01241 m -0.75532,-0.738365 -0.0405,1.430793" /><path
       id="path19480-1-9-7-0-0-0-0-5-1-0-9-3-5-4-6-3-5-9-9"
       style="fill:#d1d9e6;fill-opacity:1;stroke:#d1d9e6;stroke-width:0.144679;stroke-linecap:round;stroke-dasharray:none;stroke-opacity:1"
       d="m 146.78691,57.77766 1.07302,-1.113103 m -1.02595,-0.06636 1.01056,1.228572 m -1.26613,-0.607059 1.5446,-0.01241 m -0.75531,-0.738365 -0.0405,1.430793" /><path
       id="path19480-1-9-7-0-0-0-0-5-1-0-9-3-5-4-6-3-5-2-8"
       style="fill:#d1d9e6;fill-opacity:1;stroke:#d1d9e6;stroke-width:0.144679;stroke-linecap:round;stroke-dasharray:none;stroke-opacity:1"
       d="m 148.55167,56.453787 1.07303,-1.113102 m -1.02596,-0.06636 1.01057,1.228571 m -1.26613,-0.607059 1.5446,-0.0124 m -0.75531,-0.738366 -0.0405,1.430793" /><rect
       style="fill:#006eff;fill-opacity:1;stroke:none;stroke-width:0.2;stroke-dasharray:none;stroke-opacity:1"
       id="rect7490-4-17"
       width="0.44761309"
       height="1.9800973"
       x="159.61365"
       y="6.6667833"
       ry="0.22380655"
       transform="rotate(17.755825)" /><rect
       style="fill:#006eff;fill-opacity:1;stroke:none;stroke-width:0.2;stroke-dasharray:none;stroke-opacity:1"
       id="rect7490-4-0-47"
       width="0.44761309"
       height="1.9800973"
       x="158.20444"
       y="8.3419514"
       ry="0.22380655"
       transform="rotate(17.755825)" /><rect
       style="fill:#006eff;fill-opacity:1;stroke:none;stroke-width:0.2;stroke-dasharray:none;stroke-opacity:1"
       id="rect7490-4-0-5-9"
       width="0.44761309"
       height="1.9800973"
       x="156.67126"
       y="7.4924116"
       ry="0.22380655"
       transform="rotate(17.755825)" /><rect
       style="fill:#006eff;fill-opacity:1;stroke:none;stroke-width:0.2;stroke-dasharray:none;stroke-opacity:1"
       id="rect7490-4-0-5-1-4"
       width="0.44761309"
       height="1.9800973"
       x="155.42679"
       y="9.1578665"
       ry="0.22380655"
       transform="rotate(17.755825)" /><rect
       style="fill:#006eff;fill-opacity:1;stroke:none;stroke-width:0.2;stroke-dasharray:none;stroke-opacity:1"
       id="rect7490-4-0-5-1-5-5"
       width="0.44761309"
       height="1.9800973"
       x="153.95001"
       y="8.1944809"
       ry="0.22380655"
       transform="rotate(17.755825)" /><path
       id="path567-4-9-91"
       style="fill:#858585;fill-opacity:1;stroke-width:6.42283"
       d="m 146.4289,46.469391 c -0.85549,0 -1.60976,0.270992 -2.2624,0.813387 -0.65264,0.542395 -1.06694,1.241545 -1.24333,2.09703 -0.6791,0.105833 -1.23955,0.418614 -1.68052,0.93896 -0.44097,0.520347 -0.66146,1.124377 -0.66146,1.812293 0,0.77611 0.27151,1.435778 0.81391,1.978174 0.54239,0.542395 1.20154,0.813387 1.97765,0.813387 h 6.61459 c 0.60854,0 1.13309,-0.220487 1.57406,-0.661459 0.44098,-0.440971 0.66146,-0.965523 0.66146,-1.574064 0,-0.652638 -0.22048,-1.19283 -0.66146,-1.620573 -0.44097,-0.427744 -0.97885,-0.633106 -1.61385,-0.615466 v -0.317293 c 0,-1.005416 -0.33945,-1.867622 -1.01855,-2.586406 -0.6791,-0.718784 -1.51233,-1.07797 -2.5001,-1.07797 z"
       inkscape:export-filename="cloud.svg"
       inkscape:export-xdpi="96"
       inkscape:export-ydpi="96" /></g></svg>
