<?xml version="1.0" encoding="UTF-8" standalone="no"?>
<!-- Created with Inkscape (http://www.inkscape.org/) -->

<svg
   width="11.641663mm"
   height="12.760027mm"
   viewBox="0 0 11.641663 12.760027"
   version="1.1"
   id="svg5"
   xml:space="preserve"
   inkscape:version="1.2.2 (732a01da63, 2022-12-09)"
   sodipodi:docname="Zeichnung-Inkscape.svg"
   xmlns:inkscape="http://www.inkscape.org/namespaces/inkscape"
   xmlns:sodipodi="http://sodipodi.sourceforge.net/DTD/sodipodi-0.dtd"
   xmlns="http://www.w3.org/2000/svg"
   xmlns:svg="http://www.w3.org/2000/svg"><sodipodi:namedview
     id="namedview7"
     pagecolor="#505050"
     bordercolor="#eeeeee"
     borderopacity="1"
     inkscape:showpageshadow="0"
     inkscape:pageopacity="0"
     inkscape:pagecheckerboard="0"
     inkscape:deskcolor="#505050"
     inkscape:document-units="mm"
     showgrid="false"
     inkscape:zoom="8.2041846"
     inkscape:cx="683.37078"
     inkscape:cy="155.71322"
     inkscape:window-width="1920"
     inkscape:window-height="1001"
     inkscape:window-x="-9"
     inkscape:window-y="-9"
     inkscape:window-maximized="1"
     inkscape:current-layer="layer1" /><defs
     id="defs2" /><g
     inkscape:label="Ebene 1"
     inkscape:groupmode="layer"
     id="layer1"
     transform="translate(-182.5358,-29.927499)"><path
       id="path19480-1-9-7-0-0-0-0-5-1-0-9-3-5-4-6-3-5-29"
       style="fill:#d1d9e6;fill-opacity:1;stroke:#d1d9e6;stroke-width:0.144679;stroke-linecap:round;stroke-dasharray:none;stroke-opacity:1"
       d="m 186.46062,40.626286 1.07302,-1.113102 m -1.02595,-0.06636 1.01057,1.228571 m -1.26613,-0.607059 1.5446,-0.01241 m -0.75531,-0.738365 -0.0405,1.430793" /><path
       id="path19480-1-9-7-0-0-0-0-5-1-0-9-3-5-4-6-3-5-3-6"
       style="fill:#d1d9e6;fill-opacity:1;stroke:#d1d9e6;stroke-width:0.144679;stroke-linecap:round;stroke-dasharray:none;stroke-opacity:1"
       d="m 185.01597,39.28375 1.07302,-1.113102 m -1.02595,-0.06636 1.01057,1.228571 m -1.26613,-0.607059 1.5446,-0.0124 m -0.75531,-0.738365 -0.0405,1.430792" /><path
       id="path19480-1-9-7-0-0-0-0-5-1-0-9-3-5-4-6-3-5-7-6"
       style="fill:#d1d9e6;fill-opacity:1;stroke:#d1d9e6;stroke-width:0.144679;stroke-linecap:round;stroke-dasharray:none;stroke-opacity:1"
       d="m 187.83731,39.443601 1.07302,-1.113102 m -1.02595,-0.06636 1.01056,1.228571 m -1.26612,-0.607059 1.5446,-0.01241 m -0.75532,-0.738365 -0.0405,1.430793" /><path
       id="path19480-1-9-7-0-0-0-0-5-1-0-9-3-5-4-6-3-5-9-3"
       style="fill:#d1d9e6;fill-opacity:1;stroke:#d1d9e6;stroke-width:0.144679;stroke-linecap:round;stroke-dasharray:none;stroke-opacity:1"
       d="m 188.76935,40.965479 1.07302,-1.113103 m -1.02595,-0.06636 1.01056,1.228572 m -1.26613,-0.607059 1.5446,-0.01241 m -0.75531,-0.738365 -0.0405,1.430793" /><path
       id="path19480-1-9-7-0-0-0-0-5-1-0-9-3-5-4-6-3-5-2-3"
       style="fill:#d1d9e6;fill-opacity:1;stroke:#d1d9e6;stroke-width:0.144679;stroke-linecap:round;stroke-dasharray:none;stroke-opacity:1"
       d="m 190.55691,39.384557 1.07303,-1.113102 m -1.02596,-0.06636 1.01057,1.228571 m -1.26613,-0.607059 1.5446,-0.0124 m -0.75531,-0.738366 -0.0405,1.430793" /><path
       id="path19480-1-9-7-0-0-0-0-5-1-0-9-3-5-4-6-3-5-29-3"
       style="fill:#d1d9e6;fill-opacity:1;stroke:#d1d9e6;stroke-width:0.144679;stroke-linecap:round;stroke-dasharray:none;stroke-opacity:1"
       d="m 185.11489,41.743735 1.07302,-1.113102 m -1.02595,-0.06636 1.01057,1.228571 m -1.26613,-0.607059 1.5446,-0.01241 m -0.75531,-0.738365 -0.0405,1.430793" /><path
       id="path19480-1-9-7-0-0-0-0-5-1-0-9-3-5-4-6-3-5-3-6-9"
       style="fill:#d1d9e6;fill-opacity:1;stroke:#d1d9e6;stroke-width:0.144679;stroke-linecap:round;stroke-dasharray:none;stroke-opacity:1"
       d="m 190.43468,41.386538 1.07302,-1.113102 m -1.02595,-0.06636 1.01057,1.228571 m -1.26613,-0.607059 1.5446,-0.0124 m -0.75531,-0.738365 -0.0405,1.430792" /><path
       id="path19480-1-9-7-0-0-0-0-5-1-0-9-3-5-4-6-3-5-9-3-3"
       style="fill:#d1d9e6;fill-opacity:1;stroke:#d1d9e6;stroke-width:0.144679;stroke-linecap:round;stroke-dasharray:none;stroke-opacity:1"
       d="m 187.64517,42.493121 1.07302,-1.113103 m -1.02595,-0.06636 1.01056,1.228572 m -1.26613,-0.607059 1.5446,-0.01241 m -0.75531,-0.738365 -0.0405,1.430793" /><path
       id="path567-4-9-4-4"
       style="fill:#ffffff;fill-opacity:1;stroke-width:6.42283"
       d="m 188.38351,29.9275 c -0.85549,0 -1.60976,0.270992 -2.2624,0.813387 -0.65264,0.542395 -1.06694,1.241545 -1.24333,2.09703 -0.6791,0.105833 -1.23955,0.418614 -1.68052,0.93896 -0.44097,0.520347 -0.66146,1.124377 -0.66146,1.812293 0,0.77611 0.27151,1.435778 0.81391,1.978174 0.54239,0.542395 1.20154,0.813387 1.97765,0.813387 h 6.61459 c 0.60854,0 1.13309,-0.220487 1.57406,-0.661459 0.44098,-0.440971 0.66146,-0.965523 0.66146,-1.574064 0,-0.652638 -0.22048,-1.19283 -0.66146,-1.620573 -0.44097,-0.427744 -0.97885,-0.633106 -1.61385,-0.615466 v -0.317293 c 0,-1.005416 -0.33945,-1.867622 -1.01855,-2.586406 -0.6791,-0.718784 -1.51233,-1.07797 -2.5001,-1.07797 z"
       inkscape:export-filename="cloud.svg"
       inkscape:export-xdpi="96"
       inkscape:export-ydpi="96" /></g></svg>
