<?xml version="1.0" encoding="UTF-8" standalone="no"?>
<!-- Created with Inkscape (http://www.inkscape.org/) -->

<svg
   width="11.635895mm"
   height="11.640588mm"
   viewBox="0 0 11.635895 11.640588"
   version="1.1"
   id="svg5"
   xml:space="preserve"
   inkscape:version="1.2.2 (732a01da63, 2022-12-09)"
   sodipodi:docname="Zeichnung-Inkscape.svg"
   xmlns:inkscape="http://www.inkscape.org/namespaces/inkscape"
   xmlns:sodipodi="http://sodipodi.sourceforge.net/DTD/sodipodi-0.dtd"
   xmlns="http://www.w3.org/2000/svg"
   xmlns:svg="http://www.w3.org/2000/svg"><sodipodi:namedview
     id="namedview7"
     pagecolor="#505050"
     bordercolor="#eeeeee"
     borderopacity="1"
     inkscape:showpageshadow="0"
     inkscape:pageopacity="0"
     inkscape:pagecheckerboard="0"
     inkscape:deskcolor="#505050"
     inkscape:document-units="mm"
     showgrid="false"
     inkscape:zoom="8.2041846"
     inkscape:cx="683.37078"
     inkscape:cy="155.71322"
     inkscape:window-width="1920"
     inkscape:window-height="1001"
     inkscape:window-x="-9"
     inkscape:window-y="-9"
     inkscape:window-maximized="1"
     inkscape:current-layer="layer1" /><defs
     id="defs2" /><g
     inkscape:label="Ebene 1"
     inkscape:groupmode="layer"
     id="layer1"
     transform="translate(-118.32981,-10.605342)"><path
       id="path294"
       style="fill:#ffdb10;fill-opacity:1;stroke-width:0.0132292"
       d="m 124.12587,10.618635 a 0.42333562,0.42333562 0 0 0 -0.31805,0.40543 l -0.012,1.117892 a 0.40360375,0.40360375 0 0 0 0.35802,0.435701 0.41337557,0.41337557 0 0 0 0.42787,-0.408665 l 0.0117,-1.136335 a 0.39405945,0.39405945 0 0 0 -0.35777,-0.427293 0.42333562,0.42333562 0 0 0 -0.10976,0.01327 z m -3.84995,1.537663 a 0.39775618,0.39775618 0 0 0 -0.18584,0.08903 0.42333197,0.42333197 0 0 0 -0.006,0.598431 l 0.79584,0.812814 a 0.39775099,0.39775099 0 0 0 0.56104,0.04363 0.42333695,0.42333695 0 0 0 0.006,-0.598939 l -0.79584,-0.812815 a 0.39775618,0.39775618 0 0 0 -0.37509,-0.13215 z m 7.63779,0.09998 a 0.42333261,0.42333261 0 0 0 -0.19131,0.107672 l -0.81282,0.795842 a 0.39775613,0.39775613 0 0 0 -0.0431,0.560928 0.42333261,0.42333261 0 0 0 0.59844,0.0064 l 0.81281,-0.795842 a 0.39775613,0.39775613 0 0 0 0.0436,-0.561036 0.42333261,0.42333261 0 0 0 -0.40762,-0.113978 z m -4.46767,1.057913 c -0.43759,0.09431 -0.8392,0.28204 -1.20457,0.562606 -0.18532,0.142309 -0.45732,0.408413 -0.60356,0.590674 -0.35481,0.442239 -0.57001,0.942133 -0.64507,1.499747 -0.0311,0.231558 -0.0351,0.612683 -0.009,0.844881 0.0631,0.55909 0.26737,1.063406 0.61272,1.513095 0.14229,0.185329 0.40842,0.457323 0.59068,0.603556 0.44224,0.35482 0.94251,0.569399 1.50013,0.644463 0.23157,0.03117 0.6122,0.03527 0.84438,0.009 0.55908,-0.06318 1.0634,-0.267395 1.5131,-0.612715 0.18532,-0.14231 0.45732,-0.408411 0.60356,-0.590674 0.35481,-0.442236 0.57001,-0.942137 0.64507,-1.499747 0.0311,-0.231558 0.0352,-0.612176 0.009,-0.844373 -0.0631,-0.559091 -0.26748,-1.063911 -0.61282,-1.513603 -0.14229,-0.185328 -0.40842,-0.457323 -0.59068,-0.603556 -0.44224,-0.354819 -0.94252,-0.569398 -1.50014,-0.644461 -0.23157,-0.03118 -0.61219,-0.03527 -0.84437,-0.009 -0.10484,0.01185 -0.20755,0.02834 -0.30853,0.05011 z m -4.79706,2.664638 a 0.39378006,0.39378006 0 0 0 -0.31918,0.361254 0.42834208,0.42834208 0 0 0 0.42346,0.42783 l 1.55989,0.01646 -0.005,-0.401909 a 0.42855847,0.42855847 0 0 0 -0.43807,-0.397684 l -1.11789,-0.01202 a 0.39378006,0.39378006 0 0 0 -0.10339,0.0061 z m 9.65414,0.09977 a 0.39590613,0.39590613 0 0 0 -0.32426,0.354955 0.42333057,0.42333057 0 0 0 0.4187,0.427804 l 1.13644,0.01222 a 0.40311705,0.40311705 0 0 0 0.4316,-0.367169 0.4164205,0.4164205 0 0 0 -0.414,-0.425654 l -1.14589,-0.007 a 0.39590613,0.39590613 0 0 0 -0.10259,0.0048 z m -7.29072,2.933545 a 0.42333207,0.42333207 0 0 0 -0.19092,0.107053 l -0.81281,0.795842 a 0.39775664,0.39775664 0 0 0 -0.0436,0.561038 0.42333207,0.42333207 0 0 0 0.59893,0.0063 l 0.81282,-0.795842 a 0.39775664,0.39775664 0 0 0 0.0431,-0.560928 0.42333207,0.42333207 0 0 0 -0.40751,-0.113473 z m 6.01927,0.04496 a 0.39775787,0.39775787 0 0 0 -0.18584,0.08902 0.42333197,0.42333197 0 0 0 -0.006,0.598936 l 0.79584,0.812815 a 0.39775759,0.39775759 0 0 0 0.56092,0.04312 0.42333231,0.42333231 0 0 0 0.006,-0.598434 l -0.79584,-0.812815 a 0.39775787,0.39775787 0 0 0 -0.37521,-0.132653 z m -3.00843,1.214693 a 0.42135642,0.42135642 0 0 0 -0.31643,0.405607 l -0.006,1.145774 a 0.39562588,0.39562588 0 0 0 0.36894,0.422751 0.42033783,0.42033783 0 0 0 0.41993,-0.423333 l -0.009,-1.137105 a 0.39284939,0.39284939 0 0 0 -0.34712,-0.426963 0.42135642,0.42135642 0 0 0 -0.10975,0.01327 z" /></g></svg>
