<?xml version="1.0" encoding="UTF-8" standalone="no"?>
<!-- Created with Inkscape (http://www.inkscape.org/) -->

<svg
   width="11.641655mm"
   height="12.767376mm"
   viewBox="0 0 11.641655 12.767376"
   version="1.1"
   id="svg5"
   xml:space="preserve"
   inkscape:version="1.2.2 (732a01da63, 2022-12-09)"
   sodipodi:docname="Zeichnung-Inkscape.svg"
   xmlns:inkscape="http://www.inkscape.org/namespaces/inkscape"
   xmlns:sodipodi="http://sodipodi.sourceforge.net/DTD/sodipodi-0.dtd"
   xmlns="http://www.w3.org/2000/svg"
   xmlns:svg="http://www.w3.org/2000/svg"><sodipodi:namedview
     id="namedview7"
     pagecolor="#505050"
     bordercolor="#eeeeee"
     borderopacity="1"
     inkscape:showpageshadow="0"
     inkscape:pageopacity="0"
     inkscape:pagecheckerboard="0"
     inkscape:deskcolor="#505050"
     inkscape:document-units="mm"
     showgrid="false"
     inkscape:zoom="8.2041846"
     inkscape:cx="683.37078"
     inkscape:cy="155.71322"
     inkscape:window-width="1920"
     inkscape:window-height="1001"
     inkscape:window-x="-9"
     inkscape:window-y="-9"
     inkscape:window-maximized="1"
     inkscape:current-layer="layer1" /><defs
     id="defs2"><inkscape:path-effect
       effect="fillet_chamfer"
       id="path-effect19092"
       is_visible="true"
       lpeversion="1"
       nodesatellites_param="F,0,0,1,0,0.26458333,0,1 @ F,0,0,1,0,0.26458333,0,1 @ F,0,0,1,0,0.26458333,0,1 @ F,0,0,1,0,0.26458333,0,1 @ F,0,0,1,0,0.26458333,0,1 @ F,0,0,1,0,0.26458333,0,1 @ F,0,0,1,0,0.26458333,0,1"
       unit="px"
       method="auto"
       mode="F"
       radius="1"
       chamfer_steps="1"
       flexible="false"
       use_knot_distance="true"
       apply_no_radius="true"
       apply_with_radius="true"
       only_selected="false"
       hide_knots="false" /></defs><g
     inkscape:label="Ebene 1"
     inkscape:groupmode="layer"
     id="layer1"
     transform="translate(-110.50293,-34.325351)"><path
       style="fill:#fff700;fill-opacity:1;stroke:none;stroke-width:0.0378745;stroke-dasharray:none;stroke-opacity:1"
       d="m 117.53465,40.719938 1.97348,-0.07021 a 0.12448338,0.12448338 62.765894 0 1 0.1031,0.200305 l -2.39417,3.112317 a 0.13457006,0.13457006 64.527855 0 0 0.10317,0.216576 l 0.61494,0.01595 a 0.1350809,0.1350809 64.440035 0 1 0.10381,0.217069 l -2.03797,2.666154 a 0.03713981,0.03713981 29.403362 0 1 -0.0641,-0.03611 l 0.80772,-2.059714 a 0.18567906,0.18567906 56.473286 0 0 -0.16789,-0.253401 l -0.57919,-0.01551 a 0.18664763,0.18664763 56.332995 0 1 -0.1691,-0.253871 l 1.34637,-3.483355 a 0.40103314,0.40103314 144.54733 0 1 0.35981,-0.256198 z"
       id="path18897"
       sodipodi:nodetypes="cccccccc"
       inkscape:path-effect="#path-effect19092"
       inkscape:original-d="m 117.27023,40.729346 2.50232,-0.08903 -2.71681,3.531743 1.14392,0.02968 -2.35933,3.086566 1.00092,-2.552354 -1.10817,-0.02967 z" /><path
       id="path567-4-8"
       style="fill:#333333;fill-opacity:1;stroke-width:6.42283"
       d="m 116.35063,34.325353 c -0.85548,0 -1.60975,0.270992 -2.26239,0.813387 -0.65264,0.542395 -1.06695,1.241545 -1.24334,2.09703 -0.6791,0.105833 -1.23954,0.418614 -1.68051,0.93896 -0.44098,0.520347 -0.66146,1.124377 -0.66146,1.812293 0,0.77611 0.2715,1.435778 0.8139,1.978174 0.54239,0.542395 1.20155,0.813387 1.97766,0.813387 h 6.61458 c 0.60854,0 1.13309,-0.220487 1.57406,-0.661459 0.44098,-0.440971 0.66146,-0.965523 0.66146,-1.574064 0,-0.652638 -0.22048,-1.19283 -0.66146,-1.620573 -0.44097,-0.427744 -0.97885,-0.633106 -1.61385,-0.615466 v -0.317293 c 0,-1.005416 -0.33945,-1.867622 -1.01854,-2.586406 -0.6791,-0.718784 -1.51233,-1.07797 -2.50011,-1.07797 z"
       inkscape:export-filename="cloud.svg"
       inkscape:export-xdpi="96"
       inkscape:export-ydpi="96" /></g></svg>
