<?xml version="1.0" encoding="UTF-8" standalone="no"?>
<!-- Created with Inkscape (http://www.inkscape.org/) -->

<svg
   width="826.88446mm"
   height="95.7089mm"
   viewBox="0 0 826.88446 95.7089"
   version="1.1"
   id="svg5"
   inkscape:version="1.2.2 (732a01da63, 2022-12-09)"
   sodipodi:docname="Hintergrund-Banner.svg"
   inkscape:export-filename="Hintergrund-Wetter.png"
   inkscape:export-xdpi="96"
   inkscape:export-ydpi="96"
   xml:space="preserve"
   xmlns:inkscape="http://www.inkscape.org/namespaces/inkscape"
   xmlns:sodipodi="http://sodipodi.sourceforge.net/DTD/sodipodi-0.dtd"
   xmlns="http://www.w3.org/2000/svg"
   xmlns:svg="http://www.w3.org/2000/svg"><sodipodi:namedview
     id="namedview7"
     pagecolor="#505050"
     bordercolor="#eeeeee"
     borderopacity="1"
     inkscape:showpageshadow="0"
     inkscape:pageopacity="0"
     inkscape:pagecheckerboard="0"
     inkscape:deskcolor="#505050"
     inkscape:document-units="mm"
     showgrid="false"
     inkscape:zoom="0.36257716"
     inkscape:cx="-991.51309"
     inkscape:cy="839.82124"
     inkscape:window-width="1920"
     inkscape:window-height="1001"
     inkscape:window-x="-9"
     inkscape:window-y="-9"
     inkscape:window-maximized="1"
     inkscape:current-layer="layer6" /><defs
     id="defs2" /><g
     inkscape:groupmode="layer"
     id="g9809"
     inkscape:label="W2 Kopie"
     transform="translate(1723.3664,181.99707)"><path
       id="path9807-3"
       style="display:inline;fill:#000000;fill-opacity:1;stroke:none;stroke-width:6"
       d="m -1705.4098,-181.99706 a 28.12183,28.12183 0 0 0 -17.9566,26.04957 28.12183,28.12183 0 0 0 28.1218,28.1218 28.12183,28.12183 0 0 0 20.9533,-9.38806 15.737906,15.737906 0 0 0 6.2001,2.84169 30.185818,30.185818 0 0 0 28.8324,21.25193 30.185818,30.185818 0 0 0 27.1373,-16.97725 17.744663,17.744663 0 0 0 9.1679,2.56315 17.744663,17.744663 0 0 0 13.8075,-6.60528 28.12183,28.12183 0 0 0 17.7405,6.31382 28.12183,28.12183 0 0 0 9.1658,-1.55598 28.12183,28.12183 0 0 0 24.1164,13.68186 28.12183,28.12183 0 0 0 25.5891,-16.49925 31.991806,31.991806 0 0 0 9.7565,1.5353 31.991806,31.991806 0 0 0 23.6518,-10.46448 15.737906,15.737906 0 0 0 9.8878,3.4985 15.737906,15.737906 0 0 0 13.8524,-8.29045 29.92782,29.92782 0 0 0 16.8496,5.19451 29.92782,29.92782 0 0 0 9.1643,-1.45004 13.41592,13.41592 0 0 0 13.0235,10.22212 13.41592,13.41592 0 0 0 3.544,-0.48628 17.285896,17.285896 0 0 0 16.8377,13.38575 17.285896,17.285896 0 0 0 13.2653,-6.21823 34.055794,34.055794 0 0 0 19.2428,5.96036 34.055794,34.055794 0 0 0 29.0886,-16.38401 15.737906,15.737906 0 0 0 5.225,0.90434 15.737906,15.737906 0 0 0 6.3035,-1.32964 15.737906,15.737906 0 0 0 12.5305,6.23166 15.737906,15.737906 0 0 0 5.5031,-1.002 18.059893,18.059893 0 0 0 16.9426,11.83804 18.059893,18.059893 0 0 0 2.5921,-0.19069 21.671869,21.671869 0 0 0 18.5637,10.51047 21.671869,21.671869 0 0 0 18.6449,-10.63966 15.737906,15.737906 0 0 0 7.413,1.86759 15.737906,15.737906 0 0 0 11.916,-5.47357 30.701815,30.701815 0 0 0 19.8179,7.27966 30.701815,30.701815 0 0 0 25.3049,-13.32322 15.737906,15.737906 0 0 0 9.0889,2.89905 15.737906,15.737906 0 0 0 4.3553,-0.62322 30.185818,30.185818 0 0 0 28.3306,19.81946 30.185818,30.185818 0 0 0 17.7736,-5.81308 13.366284,13.366284 0 0 0 6.2771,1.57665 13.366284,13.366284 0 0 0 13.2012,-11.29337 13.366284,13.366284 0 0 0 5.9382,-2.51303 30.185818,30.185818 0 0 0 17.5297,5.63274 30.185818,30.185818 0 0 0 4.8467,-0.40308 13.366284,13.366284 0 0 0 12.6664,9.12399 13.366284,13.366284 0 0 0 4.6054,-0.82682 26.831839,26.831839 0 0 0 23.7148,14.319538 26.831839,26.831839 0 0 0 25.6894,-19.108398 22.703861,22.703861 0 0 0 16.36437,6.98252 22.703861,22.703861 0 0 0 13.3475,-4.35632 15.221907,15.221907 0 0 0 10.9043,4.6147 15.221907,15.221907 0 0 0 5.934,-1.21543 34.055794,34.055794 0 0 0 32.5081,23.918958 34.055794,34.055794 0 0 0 32.7856,-24.925098 h 1.2547 v -8.71781 a 34.055794,34.055794 0 0 0 0.015,-0.41289 34.055794,34.055794 0 0 0 -0.015,-0.98289 v -59.94001 h -8.7566 v -0.73019 h -439.76587 -36.8422 -28.9807 -55.3744 -11.0805 -50.9395 -32.5732 -21.1641 -102.6754 z"
       inkscape:label="W-Schicht1" /></g></svg>
