<?xml version="1.0" encoding="UTF-8" standalone="no"?>
<!-- Created with Inkscape (http://www.inkscape.org/) -->

<svg
   width="861.80182mm"
   height="111.04435mm"
   viewBox="0 0 861.80182 111.04435"
   version="1.1"
   id="svg5"
   inkscape:version="1.2.2 (732a01da63, 2022-12-09)"
   sodipodi:docname="Hintergrund-Banner.svg"
   inkscape:export-filename="Hintergrund-Wetter.png"
   inkscape:export-xdpi="96"
   inkscape:export-ydpi="96"
   xml:space="preserve"
   xmlns:inkscape="http://www.inkscape.org/namespaces/inkscape"
   xmlns:sodipodi="http://sodipodi.sourceforge.net/DTD/sodipodi-0.dtd"
   xmlns="http://www.w3.org/2000/svg"
   xmlns:svg="http://www.w3.org/2000/svg"><sodipodi:namedview
     id="namedview7"
     pagecolor="#505050"
     bordercolor="#eeeeee"
     borderopacity="1"
     inkscape:showpageshadow="0"
     inkscape:pageopacity="0"
     inkscape:pagecheckerboard="0"
     inkscape:deskcolor="#505050"
     inkscape:document-units="mm"
     showgrid="false"
     inkscape:zoom="0.36257716"
     inkscape:cx="-991.51309"
     inkscape:cy="839.82124"
     inkscape:window-width="1920"
     inkscape:window-height="1001"
     inkscape:window-x="-9"
     inkscape:window-y="-9"
     inkscape:window-maximized="1"
     inkscape:current-layer="layer6" /><defs
     id="defs2" /><g
     inkscape:groupmode="layer"
     id="g9809"
     inkscape:label="W2 Kopie"
     transform="translate(1761.4976,89.340452)"><path
       id="rect6925-4-9"
       style="fill:#000000;fill-opacity:1;stroke:none;stroke-width:5.03869"
       inkscape:label="W-Schicht2"
       d="m -1704.5016,-89.340455 a 30.639616,31.2586 0 0 0 -0.2951,0.72968 h -40.6559 v 6.106084 a 30.639616,31.2586 0 0 0 -16.045,27.46189 30.639616,31.2586 0 0 0 30.64,31.258559 30.639616,31.2586 0 0 0 27.0087,-16.544729 20.988943,21.412962 0 0 0 9.4774,2.32079 20.988943,21.412962 0 0 0 18.1235,-10.6195 30.639616,31.2586 0 0 0 0.8495,0.0325 30.639616,31.2586 0 0 0 15.9014,-4.56044 30.639616,31.2586 0 0 0 19.8556,7.47913 30.639616,31.2586 0 0 0 4.3393,-0.32246 20.988943,21.412962 0 0 0 18.2821,10.90941 20.988943,21.412962 0 0 0 9.8009,-2.49442 30.639616,31.2586 0 0 0 29.6044,23.285909 30.639616,31.2586 0 0 0 25.5184,-13.97899 20.988943,21.412962 0 0 0 4.4007,0.48473 20.988943,21.412962 0 0 0 20.8726,-19.294949 13.24899,13.516646 0 0 0 5.3976,1.18236 13.24899,13.516646 0 0 0 12.0872,-8.00365 30.639616,31.2586 0 0 0 9.8045,1.6645 30.639616,31.2586 0 0 0 9.2646,-1.47175 20.988943,21.412962 0 0 0 19.1952,12.78837 20.988943,21.412962 0 0 0 9.1333,-2.13475 30.639616,31.2586 0 0 0 25.1638,13.439999 30.639616,31.2586 0 0 0 24.5856,-12.640569 20.988943,21.412962 0 0 0 8.9819,2.06499 20.988943,21.412962 0 0 0 18.3503,-11.04015 20.988943,21.412962 0 0 0 14.4875,5.93245 20.988943,21.412962 0 0 0 8.1767,-1.70687 17.183027,17.530159 0 0 0 -0.1043,1.82056 17.183027,17.530159 0 0 0 17.1829,17.530199 17.183027,17.530159 0 0 0 10.6944,-3.81011 13.24899,13.516646 0 0 0 10.7534,5.63429 13.24899,13.516646 0 0 0 4.6622,-0.87075 30.639616,31.2586 0 0 0 27.235,16.9824212 30.639616,31.2586 0 0 0 29.944,-24.6935802 30.639616,31.2586 0 0 0 10.4019,1.877919 30.639616,31.2586 0 0 0 15.8435,-4.523239 13.24899,13.516646 0 0 0 12.6157,9.403049 13.24899,13.516646 0 0 0 6.04,-1.49552 20.988943,21.412962 0 0 0 20.0985,15.2616 20.988943,21.412962 0 0 0 18.7286,-11.77137 20.988943,21.412962 0 0 0 7.5871,1.45159 20.988943,21.412962 0 0 0 4.8219,-0.57826 30.639616,31.2586 0 0 0 29.7502,23.83989123 30.639616,31.2586 0 0 0 28.7507,-20.50676123 20.988943,21.412962 0 0 0 7.369,1.37304 20.988943,21.412962 0 0 0 20.2861,-15.975249 13.24899,13.516646 0 0 0 2.6521,0.28164 13.24899,13.516646 0 0 0 5.4699,-1.2144 13.24899,13.516646 0 0 0 11.8396,7.463629 13.24899,13.516646 0 0 0 4.332,-0.75293 13.24899,13.516646 0 0 0 -0.037,1.01183 13.24899,13.516646 0 0 0 13.2493,13.51648 13.24899,13.516646 0 0 0 9.3137,-3.91655 20.988943,21.412962 0 0 0 19.066,12.4855412 20.988943,21.412962 0 0 0 13.99189,-5.4668502 20.988943,21.412962 0 0 0 16.77521,10.6158902 30.639616,31.2586 0 0 0 29.7243,23.7422198 30.639616,31.2586 0 0 0 20.3342,-7.90029 20.988943,21.412962 0 0 0 12.6948,4.37699 20.988943,21.412962 0 0 0 20.4323,-17.1028298 V -88.610775 h -5.1077 -42.3245 -285.6627 a 30.639616,31.2586 0 0 0 -1.1803,-0.72968 h -34.8841 a 30.639616,31.2586 0 0 0 -1.1798,0.72968 h -152.6016 a 30.639616,31.2586 0 0 0 -1.9011,-0.72968 h -24.4368 a 30.639616,31.2586 0 0 0 -1.8991,0.72968 h -18.4345 a 30.639616,31.2586 0 0 0 -0.2067,-0.72968 h -60.0263 a 30.639616,31.2586 0 0 0 -0.2067,0.72968 h -81.4726 a 30.639616,31.2586 0 0 0 -0.3922,-0.72968 z" /></g></svg>
