<?xml version="1.0" encoding="UTF-8" standalone="no"?>
<!-- Created with Inkscape (http://www.inkscape.org/) -->

<svg
   width="291.21582mm"
   height="186.95007mm"
   viewBox="0 0 291.21582 186.95007"
   version="1.1"
   id="svg5"
   inkscape:version="1.2.2 (732a01da63, 2022-12-09)"
   sodipodi:docname="Hintergrund-Banner.svg"
   inkscape:export-filename="Hintergrund-Wetter.png"
   inkscape:export-xdpi="96"
   inkscape:export-ydpi="96"
   xml:space="preserve"
   xmlns:inkscape="http://www.inkscape.org/namespaces/inkscape"
   xmlns:sodipodi="http://sodipodi.sourceforge.net/DTD/sodipodi-0.dtd"
   xmlns="http://www.w3.org/2000/svg"
   xmlns:svg="http://www.w3.org/2000/svg"><sodipodi:namedview
     id="namedview7"
     pagecolor="#505050"
     bordercolor="#eeeeee"
     borderopacity="1"
     inkscape:showpageshadow="0"
     inkscape:pageopacity="0"
     inkscape:pagecheckerboard="0"
     inkscape:deskcolor="#505050"
     inkscape:document-units="mm"
     showgrid="false"
     inkscape:zoom="0.25638077"
     inkscape:cx="-4327.5477"
     inkscape:cy="665.02648"
     inkscape:window-width="1920"
     inkscape:window-height="1001"
     inkscape:window-x="-9"
     inkscape:window-y="-9"
     inkscape:window-maximized="1"
     inkscape:current-layer="g9809" /><defs
     id="defs2" /><g
     inkscape:groupmode="layer"
     id="layer7"
     inkscape:label="schnee"
     transform="translate(1959.3505,-947.57492)"><g
       id="g14733"
       inkscape:label="g14733"><path
         id="path19480-1-9-7-0-0-0-0-5-1-0-7-6-3-0"
         style="fill:#fb6d25;fill-opacity:0.267742;stroke:#d1d9e6;stroke-width:0.126404;stroke-dasharray:none;stroke-opacity:1"
         d="m -1794.0751,962.8081 3.8167,-4.19039 m -3.7666,-0.13667 3.8308,4.39722 m -4.7028,-2.09314 5.659,-0.20578 m -2.8446,-2.62735 v 5.24739" /><path
         id="path19480-1-9-7-0-0-0-0-5-1-0-0-3-9-6-1"
         style="fill:#fb6d25;fill-opacity:0.267742;stroke:#d1d9e6;stroke-width:0.126404;stroke-dasharray:none;stroke-opacity:1"
         d="m -1803.1967,1130.4851 3.8166,-4.1904 m -3.7665,-0.1367 3.8308,4.3972 m -4.7028,-2.0931 5.6589,-0.2058 m -2.8445,-2.6273 v 5.2474" /><path
         id="path19480-1-9-7-0-0-0-0-5-1-0-0-6-8-2-7-5"
         style="fill:#fb6d25;fill-opacity:0.267742;stroke:#d1d9e6;stroke-width:0.126404;stroke-dasharray:none;stroke-opacity:1"
         d="m -1755.7642,1134.1337 3.8166,-4.1904 m -3.7666,-0.1366 3.8308,4.3972 m -4.7028,-2.0931 5.659,-0.2058 m -2.8446,-2.6274 v 5.2474" /><path
         id="path19480-1-9-7-0-0-0-0-5-1-0-0-7-1-7-5-0"
         style="fill:#fb6d25;fill-opacity:0.267742;stroke:#d1d9e6;stroke-width:0.126404;stroke-dasharray:none;stroke-opacity:1"
         d="m -1698.4805,1090.35 3.8167,-4.1904 m -3.7666,-0.1367 3.8308,4.3972 m -4.7028,-2.0931 5.659,-0.2058 m -2.8446,-2.6274 v 5.2474" /><path
         id="path19480-1-9-7-0-0-0-0-5-1-0-0-8-2-5-8-4"
         style="fill:#fb6d25;fill-opacity:0.267742;stroke:#d1d9e6;stroke-width:0.126404;stroke-dasharray:none;stroke-opacity:1"
         d="m -1712.7102,1051.3094 3.8166,-4.1904 m -3.7665,-0.1366 3.8308,4.3972 m -4.7028,-2.0932 5.6589,-0.2058 m -2.8445,-2.6273 v 5.2474" /><path
         id="path19480-1-9-7-0-0-0-0-5-1-0-0-2-7-9-1-0"
         style="fill:#fb6d25;fill-opacity:0.267742;stroke:#d1d9e6;stroke-width:0.126404;stroke-dasharray:none;stroke-opacity:1"
         d="m -1796.6291,1029.7824 3.8166,-4.1904 m -3.7665,-0.1367 3.8307,4.3972 m -4.7027,-2.0931 5.6589,-0.2058 m -2.8445,-2.6273 v 5.2474" /><path
         id="path19480-1-9-7-0-0-0-0-5-1-0-1-7-3-3-5"
         style="fill:#fb6d25;fill-opacity:0.267742;stroke:#d1d9e6;stroke-width:0.126404;stroke-dasharray:none;stroke-opacity:1"
         d="m -1751.8671,1058.0567 3.8167,-4.1904 m -3.7666,-0.1367 3.8308,4.3972 m -4.7028,-2.0931 5.659,-0.2058 m -2.8446,-2.6274 v 5.2474" /><path
         id="path19480-1-9-7-0-0-0-0-5-1-0-9-6-9-3-4"
         style="fill:#fb6d25;fill-opacity:0.267742;stroke:#d1d9e6;stroke-width:0.126404;stroke-dasharray:none;stroke-opacity:1"
         d="m -1706.5075,958.26887 3.8166,-4.19039 m -3.7665,-0.13667 3.8308,4.39722 m -4.7028,-2.09314 5.6589,-0.20578 m -2.8445,-2.62735 v 5.24739" /><path
         id="path19480-1-9-7-0-0-0-0-5-1-0-9-3-3-1-2-3"
         style="fill:#fb6d25;fill-opacity:0.267742;stroke:#d1d9e6;stroke-width:0.126404;stroke-dasharray:none;stroke-opacity:1"
         d="m -1700.8379,999.95168 3.8166,-4.19039 m -3.7665,-0.13667 3.8307,4.39718 m -4.7027,-2.0931 5.6589,-0.20578 m -2.8445,-2.62735 v 5.24743" /><path
         id="path19480-1-9-7-0-0-0-0-5-1-0-9-3-5-8-3-8-7"
         style="fill:#fb6d25;fill-opacity:0.267742;stroke:#d1d9e6;stroke-width:0.126404;stroke-dasharray:none;stroke-opacity:1"
         d="m -1672.9741,1033.4915 3.8166,-4.1904 m -3.7665,-0.1367 3.8308,4.3972 m -4.7028,-2.0931 5.6589,-0.2058 m -2.8445,-2.6273 v 5.2474" /><path
         id="path19480-1-9-7-0-0-0-0-5-1-0-9-3-5-4-4-8-6-1"
         style="fill:#fb6d25;fill-opacity:0.267742;stroke:#d1d9e6;stroke-width:0.126404;stroke-dasharray:none;stroke-opacity:1"
         d="m -1774.6255,1083.5432 3.8167,-4.1904 m -3.7666,-0.1367 3.8308,4.3972 m -4.7028,-2.0931 5.659,-0.2058 m -2.8446,-2.6273 v 5.2473" /><path
         id="path19480-1-9-7-0-0-0-0-5-1-0-9-3-5-4-6-3-7-7-9"
         style="fill:#fb6d25;fill-opacity:0.267742;stroke:#d1d9e6;stroke-width:0.126404;stroke-dasharray:none;stroke-opacity:1"
         d="m -1804.5533,1105.989 3.8166,-4.1904 m -3.7665,-0.1366 3.8308,4.3972 m -4.7028,-2.0931 5.6589,-0.2058 m -2.8445,-2.6274 v 5.2474" /><path
         id="path19480-1-9-7-0-0-0-0-5-1-0-06-7-0-0-1"
         style="fill:#fb6d25;fill-opacity:0.267742;stroke:#d1d9e6;stroke-width:0.126404;stroke-dasharray:none;stroke-opacity:1"
         d="m -1769.2643,990.37698 3.8167,-4.19039 m -3.7666,-0.13667 3.8308,4.39722 m -4.7028,-2.09314 5.659,-0.20578 m -2.8446,-2.62735 v 5.24739" /><path
         id="path19480-1-9-7-0-0-0-0-5-1-0-7-6-3-6-6"
         style="fill:#fb6d25;fill-opacity:0.267742;stroke:#d1d9e6;stroke-width:0.126404;stroke-dasharray:none;stroke-opacity:1"
         d="m -1948.0481,956.97026 3.8167,-4.19039 m -3.7666,-0.13667 3.8308,4.39722 m -4.7028,-2.09314 5.659,-0.20578 m -2.8446,-2.62735 v 5.24739" /><path
         id="path19480-1-9-7-0-0-0-0-5-1-0-0-3-9-6-6-8"
         style="fill:#fb6d25;fill-opacity:0.267742;stroke:#d1d9e6;stroke-width:0.126404;stroke-dasharray:none;stroke-opacity:1"
         d="m -1957.1697,1124.6472 3.8166,-4.1903 m -3.7665,-0.1367 3.8308,4.3972 m -4.7028,-2.0931 5.6589,-0.2058 m -2.8445,-2.6274 v 5.2474" /><path
         id="path19480-1-9-7-0-0-0-0-5-1-0-0-6-8-2-7-0-3"
         style="fill:#fb6d25;fill-opacity:0.267742;stroke:#d1d9e6;stroke-width:0.126404;stroke-dasharray:none;stroke-opacity:1"
         d="m -1909.7372,1128.2959 3.8166,-4.1904 m -3.7666,-0.1367 3.8308,4.3973 m -4.7028,-2.0932 5.659,-0.2058 m -2.8446,-2.6273 v 5.2474" /><path
         id="path19480-1-9-7-0-0-0-0-5-1-0-0-7-1-7-5-9-4"
         style="fill:#fb6d25;fill-opacity:0.267742;stroke:#d1d9e6;stroke-width:0.126404;stroke-dasharray:none;stroke-opacity:1"
         d="m -1852.4535,1084.5121 3.8167,-4.1904 m -3.7666,-0.1366 3.8308,4.3972 m -4.7028,-2.0932 5.659,-0.2057 m -2.8446,-2.6274 v 5.2474" /><path
         id="path19480-1-9-7-0-0-0-0-5-1-0-0-8-2-5-8-7-6"
         style="fill:#fb6d25;fill-opacity:0.267742;stroke:#d1d9e6;stroke-width:0.126404;stroke-dasharray:none;stroke-opacity:1"
         d="m -1866.6832,1045.4716 3.8166,-4.1904 m -3.7665,-0.1367 3.8308,4.3972 m -4.7028,-2.0931 5.6589,-0.2058 m -2.8445,-2.6273 v 5.2474" /><path
         id="path19480-1-9-7-0-0-0-0-5-1-0-0-2-7-9-1-3-0"
         style="fill:#fb6d25;fill-opacity:0.267742;stroke:#d1d9e6;stroke-width:0.126404;stroke-dasharray:none;stroke-opacity:1"
         d="m -1950.6021,1023.9445 3.8166,-4.1904 m -3.7665,-0.1366 3.8307,4.3972 m -4.7027,-2.0931 5.6589,-0.2058 m -2.8445,-2.6274 v 5.2474" /><path
         id="path19480-1-9-7-0-0-0-0-5-1-0-1-7-3-3-6-0"
         style="fill:#fb6d25;fill-opacity:0.267742;stroke:#d1d9e6;stroke-width:0.126404;stroke-dasharray:none;stroke-opacity:1"
         d="m -1905.8401,1052.2188 3.8167,-4.1904 m -3.7666,-0.1366 3.8308,4.3972 m -4.7028,-2.0932 5.659,-0.2057 m -2.8446,-2.6274 v 5.2474" /><path
         id="path19480-1-9-7-0-0-0-0-5-1-0-9-6-9-3-0-2"
         style="fill:#fb6d25;fill-opacity:0.267742;stroke:#d1d9e6;stroke-width:0.126404;stroke-dasharray:none;stroke-opacity:1"
         d="m -1860.4805,952.43103 3.8166,-4.19039 m -3.7665,-0.13667 3.8308,4.39722 m -4.7028,-2.09314 5.6589,-0.20578 m -2.8445,-2.62735 v 5.24739" /><path
         id="path19480-1-9-7-0-0-0-0-5-1-0-9-3-3-1-2-8-5"
         style="fill:#fb6d25;fill-opacity:0.267742;stroke:#d1d9e6;stroke-width:0.126404;stroke-dasharray:none;stroke-opacity:1"
         d="m -1854.8109,994.11384 3.8166,-4.19039 m -3.7665,-0.13667 3.8307,4.39722 m -4.7027,-2.09314 5.6589,-0.20578 m -2.8445,-2.62735 v 5.24739" /><path
         id="path19480-1-9-7-0-0-0-0-5-1-0-9-3-5-8-3-8-9-7"
         style="fill:#fb6d25;fill-opacity:0.267742;stroke:#d1d9e6;stroke-width:0.126404;stroke-dasharray:none;stroke-opacity:1"
         d="m -1826.9471,1027.6536 3.8166,-4.1904 m -3.7665,-0.1366 3.8308,4.3972 m -4.7028,-2.0931 5.6589,-0.2058 m -2.8445,-2.6274 v 5.2474" /><path
         id="path19480-1-9-7-0-0-0-0-5-1-0-9-3-5-4-4-8-6-6-1"
         style="fill:#fb6d25;fill-opacity:0.267742;stroke:#d1d9e6;stroke-width:0.126404;stroke-dasharray:none;stroke-opacity:1"
         d="m -1928.5985,1077.7053 3.8167,-4.1904 m -3.7666,-0.1366 3.8308,4.3972 m -4.7028,-2.0932 5.659,-0.2057 m -2.8446,-2.6274 v 5.2474" /><path
         id="path19480-1-9-7-0-0-0-0-5-1-0-9-3-5-4-6-3-7-7-4-5"
         style="fill:#fb6d25;fill-opacity:0.267742;stroke:#d1d9e6;stroke-width:0.126404;stroke-dasharray:none;stroke-opacity:1"
         d="m -1958.5263,1100.1512 3.8166,-4.1904 m -3.7665,-0.1367 3.8308,4.3973 m -4.7028,-2.0932 5.6589,-0.2058 m -2.8445,-2.6273 v 5.2474" /><path
         id="path19480-1-9-7-0-0-0-0-5-1-0-06-7-0-0-2-1"
         style="fill:#fb6d25;fill-opacity:0.267742;stroke:#d1d9e6;stroke-width:0.126404;stroke-dasharray:none;stroke-opacity:1"
         d="m -1923.2373,984.53914 3.8167,-4.19039 m -3.7666,-0.13667 3.8308,4.39722 m -4.7028,-2.09314 5.659,-0.20578 m -2.8446,-2.62735 v 5.24739" /></g></g></svg>
