<?xml version="1.0" encoding="UTF-8" standalone="no"?>
<!-- Created with Inkscape (http://www.inkscape.org/) -->

<svg
   width="293.90686mm"
   height="218.3717mm"
   viewBox="0 0 293.90686 218.3717"
   version="1.1"
   id="svg5"
   inkscape:version="1.2.2 (732a01da63, 2022-12-09)"
   sodipodi:docname="Hintergrund-Banner.svg"
   inkscape:export-filename="Hintergrund-Wetter.png"
   inkscape:export-xdpi="96"
   inkscape:export-ydpi="96"
   xml:space="preserve"
   xmlns:inkscape="http://www.inkscape.org/namespaces/inkscape"
   xmlns:sodipodi="http://sodipodi.sourceforge.net/DTD/sodipodi-0.dtd"
   xmlns="http://www.w3.org/2000/svg"
   xmlns:svg="http://www.w3.org/2000/svg"><sodipodi:namedview
     id="namedview7"
     pagecolor="#505050"
     bordercolor="#eeeeee"
     borderopacity="1"
     inkscape:showpageshadow="0"
     inkscape:pageopacity="0"
     inkscape:pagecheckerboard="0"
     inkscape:deskcolor="#505050"
     inkscape:document-units="mm"
     showgrid="false"
     inkscape:zoom="0.25638077"
     inkscape:cx="-4327.5477"
     inkscape:cy="665.02648"
     inkscape:window-width="1920"
     inkscape:window-height="1001"
     inkscape:window-x="-9"
     inkscape:window-y="-9"
     inkscape:window-maximized="1"
     inkscape:current-layer="g9809" /><defs
     id="defs2" /><g
     inkscape:groupmode="layer"
     id="layer7"
     inkscape:label="schnee"
     transform="translate(1963.8318,-941.89792)"><g
       id="g14733"
       inkscape:label="g14733"><path
         id="path19480-7-2-6-8"
         style="fill:#fb6d25;fill-opacity:0.267742;stroke:#d1d9e6;stroke-width:0.224125;stroke-dasharray:none;stroke-opacity:1"
         d="m -1727.7446,1088.6202 6.7671,-7.4299 m -6.6784,-0.2423 6.7923,7.7966 m -8.3384,-3.7113 10.0338,-0.3649 m -5.0436,-4.6585 v 9.3041" /><path
         id="path19480-4-4-9-0-0"
         style="fill:#fb6d25;fill-opacity:0.267742;stroke:#d1d9e6;stroke-width:0.224125;stroke-dasharray:none;stroke-opacity:1"
         d="m -1791.6574,1101.0069 6.7672,-7.4299 m -6.6784,-0.2423 6.7923,7.7966 m -8.3384,-3.7113 10.0338,-0.3649 m -5.0436,-4.6585 v 9.3041" /><path
         id="path19480-1-8-6-6-8"
         style="fill:#fb6d25;fill-opacity:0.267742;stroke:#d1d9e6;stroke-width:0.224125;stroke-dasharray:none;stroke-opacity:1"
         d="m -1710.9833,1106.115 6.7672,-7.4299 m -6.6784,-0.2423 6.7923,7.7966 m -8.3384,-3.7113 10.0338,-0.3649 m -5.0436,-4.6585 v 9.3041" /><path
         id="path19480-1-9-3-2-8-79"
         style="fill:#fb6d25;fill-opacity:0.267742;stroke:#d1d9e6;stroke-width:0.224125;stroke-dasharray:none;stroke-opacity:1"
         d="m -1737.6135,1127.8325 6.7671,-7.4299 m -6.6784,-0.2423 6.7923,7.7966 m -8.3384,-3.7113 10.0338,-0.3648 m -5.0436,-4.6585 v 9.304" /><path
         id="path19480-1-9-7-0-3-2-5-8"
         style="fill:#fb6d25;fill-opacity:0.267742;stroke:#d1d9e6;stroke-width:0.224125;stroke-dasharray:none;stroke-opacity:1"
         d="m -1772.2757,1159.5758 6.7672,-7.4299 m -6.6784,-0.2423 6.7923,7.7966 m -8.3384,-3.7113 10.0337,-0.3649 m -5.0436,-4.6585 v 9.3041" /><path
         id="path19480-1-9-7-0-0-8-9-8-6"
         style="fill:#fb6d25;fill-opacity:0.267742;stroke:#d1d9e6;stroke-width:0.224125;stroke-dasharray:none;stroke-opacity:1"
         d="m -1779.573,1049.7515 6.7672,-7.4299 m -6.6784,-0.2424 6.7923,7.7967 m -8.3385,-3.7113 10.0338,-0.3649 m -5.0436,-4.6585 v 9.304" /><path
         id="path19480-1-9-7-0-0-0-7-3-8-3"
         style="fill:#fb6d25;fill-opacity:0.267742;stroke:#d1d9e6;stroke-width:0.224125;stroke-dasharray:none;stroke-opacity:1"
         d="m -1741.6271,1007.792 6.7672,-7.4299 m -6.6784,-0.2423 6.7923,7.7966 m -8.3384,-3.7113 10.0338,-0.3649 m -5.0436,-4.65848 v 9.30408" /><path
         id="path19480-1-9-7-0-0-0-3-7-7-0-4"
         style="fill:#fb6d25;fill-opacity:0.267742;stroke:#d1d9e6;stroke-width:0.224125;stroke-dasharray:none;stroke-opacity:1"
         d="m -1686.91,983.61763 6.7672,-7.42991 m -6.6784,-0.24232 6.7923,7.79663 m -8.3384,-3.71131 10.0337,-0.36486 m -5.0436,-4.65851 v 9.30405" /><path
         id="path19480-1-9-7-0-0-0-0-8-0-2-2"
         style="fill:#fb6d25;fill-opacity:0.267742;stroke:#d1d9e6;stroke-width:0.224125;stroke-dasharray:none;stroke-opacity:1"
         d="m -1803.2892,989.54876 6.7672,-7.42991 m -6.6784,-0.24232 6.7923,7.79663 m -8.3385,-3.71131 10.0338,-0.36486 m -5.0436,-4.65851 v 9.30405" /><path
         id="path19480-1-9-7-0-0-0-0-5-4-0-0-71"
         style="fill:#fb6d25;fill-opacity:0.267742;stroke:#d1d9e6;stroke-width:0.224125;stroke-dasharray:none;stroke-opacity:1"
         d="m -1754.7622,974.58931 6.7672,-7.42991 m -6.6784,-0.24232 6.7923,7.79663 m -8.3384,-3.71131 10.0337,-0.36486 m -5.0436,-4.65851 v 9.30405" /><path
         id="path19480-1-9-7-0-0-0-0-5-1-4-7-3-7"
         style="fill:#fb6d25;fill-opacity:0.267742;stroke:#d1d9e6;stroke-width:0.224125;stroke-dasharray:none;stroke-opacity:1"
         d="m -1678.5054,956.34606 6.7671,-7.42991 m -6.6784,-0.24232 6.7923,7.79663 m -8.3384,-3.71131 10.0338,-0.36486 m -5.0436,-4.65851 v 9.30405" /><path
         id="path19480-1-9-7-0-0-0-0-5-1-8-3-7-3-3"
         style="fill:#fb6d25;fill-opacity:0.267742;stroke:#d1d9e6;stroke-width:0.224125;stroke-dasharray:none;stroke-opacity:1"
         d="m -1808.3973,1154.4677 6.7671,-7.4299 m -6.6784,-0.2423 6.7924,7.7966 m -8.3385,-3.7113 10.0338,-0.3649 m -5.0436,-4.6585 v 9.3041" /><path
         id="path19480-7-2-6-9-9"
         style="fill:#fb6d25;fill-opacity:0.267742;stroke:#d1d9e6;stroke-width:0.224125;stroke-dasharray:none;stroke-opacity:1"
         d="m -1881.7176,1082.7823 6.7671,-7.4299 m -6.6784,-0.2423 6.7923,7.7966 m -8.3384,-3.7113 10.0338,-0.3648 m -5.0436,-4.6585 v 9.304" /><path
         id="path19480-4-4-9-0-4-7"
         style="fill:#fb6d25;fill-opacity:0.267742;stroke:#d1d9e6;stroke-width:0.224125;stroke-dasharray:none;stroke-opacity:1"
         d="m -1945.6304,1095.1691 6.7672,-7.4299 m -6.6784,-0.2424 6.7923,7.7967 m -8.3384,-3.7113 10.0338,-0.3649 m -5.0436,-4.6585 v 9.304" /><path
         id="path19480-1-8-6-6-7-7"
         style="fill:#fb6d25;fill-opacity:0.267742;stroke:#d1d9e6;stroke-width:0.224125;stroke-dasharray:none;stroke-opacity:1"
         d="m -1864.9563,1100.2772 6.7672,-7.4299 m -6.6784,-0.2423 6.7923,7.7966 m -8.3384,-3.7113 10.0338,-0.3649 m -5.0436,-4.6585 v 9.3041" /><path
         id="path19480-1-9-3-2-8-7-1"
         style="fill:#fb6d25;fill-opacity:0.267742;stroke:#d1d9e6;stroke-width:0.224125;stroke-dasharray:none;stroke-opacity:1"
         d="m -1891.5865,1121.9947 6.7671,-7.4299 m -6.6784,-0.2423 6.7923,7.7966 m -8.3384,-3.7113 10.0338,-0.3649 m -5.0436,-4.6585 v 9.3041" /><path
         id="path19480-1-9-7-1-6-8-6-7"
         style="fill:#fb6d25;fill-opacity:0.267742;stroke:#d1d9e6;stroke-width:0.224125;stroke-dasharray:none;stroke-opacity:1"
         d="m -1833.573,1146.8055 6.7671,-7.4299 m -6.6784,-0.2423 6.7924,7.7966 m -8.3385,-3.7113 10.0338,-0.3648 m -5.0436,-4.6586 v 9.3041" /><path
         id="path19480-1-9-7-0-3-2-5-4-4"
         style="fill:#fb6d25;fill-opacity:0.267742;stroke:#d1d9e6;stroke-width:0.224125;stroke-dasharray:none;stroke-opacity:1"
         d="m -1926.2487,1153.738 6.7672,-7.43 m -6.6784,-0.2423 6.7923,7.7967 m -8.3384,-3.7114 10.0337,-0.3648 m -5.0436,-4.6585 v 9.304" /><path
         id="path19480-1-9-7-0-0-8-9-8-4-2"
         style="fill:#fb6d25;fill-opacity:0.267742;stroke:#d1d9e6;stroke-width:0.224125;stroke-dasharray:none;stroke-opacity:1"
         d="m -1933.546,1043.9136 6.7672,-7.4299 m -6.6784,-0.2423 6.7923,7.7966 m -8.3385,-3.7113 10.0338,-0.3648 m -5.0436,-4.6585 v 9.304" /><path
         id="path19480-1-9-7-0-0-0-7-3-8-4-5"
         style="fill:#fb6d25;fill-opacity:0.267742;stroke:#d1d9e6;stroke-width:0.224125;stroke-dasharray:none;stroke-opacity:1"
         d="m -1895.6001,1001.9542 6.7672,-7.42995 m -6.6784,-0.24232 6.7923,7.79667 m -8.3384,-3.71135 10.0338,-0.36486 m -5.0436,-4.65851 v 9.30402" /><path
         id="path19480-1-9-7-0-0-0-3-7-7-0-9-7"
         style="fill:#fb6d25;fill-opacity:0.267742;stroke:#d1d9e6;stroke-width:0.224125;stroke-dasharray:none;stroke-opacity:1"
         d="m -1840.883,977.77979 6.7672,-7.42991 m -6.6784,-0.24232 6.7923,7.79663 m -8.3384,-3.71131 10.0337,-0.36486 m -5.0436,-4.65851 v 9.30405" /><path
         id="path19480-1-9-7-0-0-0-0-8-0-2-3-9"
         style="fill:#fb6d25;fill-opacity:0.267742;stroke:#d1d9e6;stroke-width:0.224125;stroke-dasharray:none;stroke-opacity:1"
         d="m -1957.2622,983.71092 6.7672,-7.42991 m -6.6784,-0.24232 6.7923,7.79663 m -8.3385,-3.71131 10.0338,-0.36486 m -5.0436,-4.65851 v 9.30405" /><path
         id="path19480-1-9-7-0-0-0-0-5-4-0-0-7-5"
         style="fill:#fb6d25;fill-opacity:0.267742;stroke:#d1d9e6;stroke-width:0.224125;stroke-dasharray:none;stroke-opacity:1"
         d="m -1908.7352,968.75147 6.7672,-7.42991 m -6.6784,-0.24232 6.7923,7.79663 m -8.3384,-3.71131 10.0337,-0.36486 m -5.0436,-4.65851 v 9.30405" /><path
         id="path19480-1-9-7-0-0-0-0-5-1-4-7-3-2-2"
         style="fill:#fb6d25;fill-opacity:0.267742;stroke:#d1d9e6;stroke-width:0.224125;stroke-dasharray:none;stroke-opacity:1"
         d="m -1832.4784,950.50822 6.7671,-7.42991 m -6.6784,-0.24232 6.7923,7.79663 m -8.3384,-3.71131 10.0338,-0.36486 m -5.0436,-4.65851 v 9.30405" /><path
         id="path19480-1-9-7-0-0-0-0-5-1-8-3-7-3-2-2"
         style="fill:#fb6d25;fill-opacity:0.267742;stroke:#d1d9e6;stroke-width:0.224125;stroke-dasharray:none;stroke-opacity:1"
         d="m -1962.3703,1148.6298 6.7671,-7.4299 m -6.6784,-0.2423 6.7924,7.7966 m -8.3385,-3.7113 10.0338,-0.3648 m -5.0436,-4.6585 v 9.304" /></g></g></svg>
